<?xml version="1.0" encoding="UTF-8"?>
<svg id="Vrstva_1" data-name="Vrstva 1" xmlns="http://www.w3.org/2000/svg" viewBox="0 0 452.36 319.85">
  <defs>
    <style>
      .cls-1 {
        fill: #fff;
      }
    </style>
  </defs>
  <path class="cls-1" d="M226.19,287.67c-88.61,0-160.7-57.3-160.7-127.75S137.58,32.18,226.19,32.18s160.69,57.3,160.69,127.74-72.1,127.75-160.69,127.75M226.19,35.89c-86.57,0-156.99,55.65-156.99,124.04s70.43,124.04,156.99,124.04,156.99-55.64,156.99-124.04-70.43-124.04-156.99-124.04"/>
  <path class="cls-1" d="M231.81,141.45l-.86-.37-.41-.75v-.75l.1-.79-.1-.7.1-.7-.05-.79-.1-.79.1-.56-.09-1.25.09-.71v-1.77l-.09-.88v-1.4l.09-1.07c.03-.78.03-1.17.06-1.96l-.05-.7-.15-.65.1-.75.05-1.53-.14-1.17v-2.51l.14-.74-.09-1.17.14-1.07-.14-1.54c.03-.89.05-1.34.09-2.23l-.14-1.22.09-1.02.38-.75.81-.23c.62-.04.94-.06,1.57-.1l.66.14.86-.24.76.04,1.52-.06.67.13c1.28,0,1.91,0,3.18,0l.67.21.86.03.72.12.71.31.77.21,1.31.89c.64.6.94.89,1.58,1.49l.4.59c.43.81.65,1.21,1.08,2.02l.17.79.26.69.13.78.03.75.17.73c.03.94.05,1.4.09,2.33l.08.74-.18.71-.11.85c-.29.83-.43,1.24-.71,2.07l-.37.62-.37.81-.9,1.19-.67.49-.63.63-.54.43-.77.44-1.38.64c-.96.25-1.45.37-2.42.61h-.75s-.78.16-.78.16l-1.15.07-1.18.34-.25.75c.03,1.19.05,1.79.08,2.98l-.14.75.05.75-.03,1.21c.05.66.07,1,.12,1.68l-.04.65-.44.75-.86.29-.6.1h-.91l-.71-.14-.76.14-.81-.04ZM238.81,125.93c.65-.06.97-.09,1.62-.17l.77-.2.64-.43,1.11-1.19.54-1.31.14-.75.03-.94.17-1.08-.08-1.06-.17-.79-.02-.65-.61-1.34-.88-1.06-1.31-.67-.78-.21-1.2.06-1.05-.13-.71.53-.38.71.02,1.4-.03.84.14.73c-.03.62-.04.93-.08,1.54l.11.88-.04.6.05.75-.08.79.06.83.02,1.22.2.78.78.32,1.04-.02"/>
  <path class="cls-1" d="M256.59,140.8l-.76.03-.87-.2-.34-.82c-.22-4.48-.32-6.73-.54-11.21l-.14-.74.07-.75c-.08-2.16-.11-3.24-.19-5.4l-.14-.78-.03-.7.07-.66-.08-.83-.13-.66.07-.69c-.03-.81-.05-1.2-.09-2.01l-.14-1.02.07-.75-.14-.78.13-.52-.09-.75-.13-.74-.1-1.39.26-.66,1.03-.43c.95-.04,1.43-.06,2.38-.11l1.04-.14c.63-.03.94-.05,1.57-.09h.86l.77-.04h.76l1.05-.07,1.18-.21.71.04.8-.19.73.09h.76s.78.27.78.27l.54.75c.04,1.22.08,1.81.12,3.03l-.19.62-.78.57-.77.05-.87-.09-.71.24c-.77.09-1.14.13-1.91.21-.71-.05-1.07-.07-1.79-.12l-.76.18-.79.47-.36.67v.75c.07.63.1.94.18,1.57v.7s.08.74.08.74l-.05.84.13,1.4.43.72.91.37.77-.14c1.09-.03,1.64-.04,2.73-.07.83-.1,1.23-.14,2.04-.24l.65.06.9.31.34.63.15.69v1.4l.15.83-.34.77-.72.28c-1.17.04-1.74.06-2.91.09l-1.22.22-1.19.03-1.13.11-.82.37-.36.77v.79l.09.7-.02.61c.14,1.72.2,2.59.34,4.31l.39.77.77.38.79-.19.87.09,1.14-.17,1.27.1h.8l.79-.24.71.04.88-.25.73.46.41.71.09,1.26c.09.74.14,1.11.23,1.85l-.41.6-.77.52-.65.14-1.36.14-1.12-.12-1.52.09-.8.25-.85.05c-.65-.06-.98-.09-1.63-.14l-.76.04-.76.14c-1,.11-1.51.16-2.52.26l-.77-.1Z"/>
  <path class="cls-1" d="M278.83,139.42l-.82-.06-.68-.18-.5-1.02-.03-1.4-.26-1.23c-.12-1.24-.17-1.86-.29-3.11l.03-.74-.16-.74c-.23-2.71-.35-4.07-.59-6.77l-.15-.64-.07-.75.08-.66-.13-.93c-.11-1.15-.16-1.73-.27-2.87l-.17-.78.02-.89-.06-.66-.16-.63v-1.22c-.21-1.55-.31-2.33-.51-3.89l.03-.66-.32-1.38.27-.72.67-.49.71-.07.74-.16h.82s.66-.1.66-.1l.77-.03.78.24.49.56.26.59.16.68.04.75c.13.9.19,1.36.32,2.26l.03.75c.19,1.83.28,2.75.48,4.58l.18.78.25.49h.59s.54-.45.54-.45l.61-.62.48-.61.32-.6.38-.51.62-1.43.17-.67.3-.78.11-.71c.26-.88.37-1.31.62-2.19l.07-.71.16-.68-.04-.79.17-.58.35-.75.75-.55c.86-.14,1.29-.21,2.17-.36l.82.09.7-.23.75.23.39.79-.14.73-.2,1.53v.7c-.22,1.2-.33,1.79-.55,2.99l-.23.49-.5,1.47-.14.81-.57,1.29-.47.67-.3.73-.33.51-.87,1.37-.29.93.14.73.34.8.85,1.35.28.67.48.65c.92,1.57,1.39,2.34,2.32,3.9l.48.7.28.61.85,1.21.54,1.05.68,1,.22.54.46.84c.52.69.78,1.05,1.3,1.75l-.1.85-1.06.43h-.82s-.85.16-.85.16c-.71.07-1.06.1-1.76.17l-1.39-.02-.85-.75-.65-1.23-.81-1.27-.42-.56c-.46-.84-.7-1.27-1.15-2.12l-.41-.47-.34-.81-.79-1.27-.42-.61-.28-.67-.43-.7-.68-1.24-.42-.61-.37-.76-.71-.53-.42.23-.12.81c.37,3.28.54,4.91.9,8.19l-.03.7.13.69-.03.76.26,1.1.03.7-.22,1.24-.83.37-.74.21c-1.01.09-1.52.13-2.53.2"/>
  <path class="cls-1" d="M317.55,134.4l-.88-.32-.67-.65-.37-.65c-.71-2.06-1.06-3.09-1.77-5.14l-.59-.56-.97-.31c-1.05.15-1.57.22-2.62.37l-.73.2-.79.08-.81.69-.49.74v1.45s-.11.86-.11.86l-.04.77-.14.77v.76s.12.78.12.78l-.14.77-.35.76-.9.51h-.71s-.86.14-.86.14c-1.07.19-1.61.28-2.7.47l-1.16-.26-.29-.62c.2-1.53.31-2.3.49-3.83l-.03-.65.15-1.44.2-.73v-.8s.14-.72.14-.72v-.76c.12-.89.17-1.34.29-2.25l-.06-.74.11-.63c.12-1.28.18-1.92.3-3.2l.15-.67c.16-1.49.25-2.24.41-3.74v-.6s.13-.87.13-.87l-.06-.75.25-1.35.03-.85.1-.62-.04-.94.05-.62.18-.82.08-.71-.03-1.56.2-.6-.03-.8.43-.71.84-.46.65-.24c.84-.08,1.25-.11,2.09-.19l.65-.19,1.17-.2.76-.17.94.14.65.73.24.82.37.5c.99,2.54,1.49,3.8,2.48,6.34l.33.51.32,1.03.48,1.05.26.9.41.64.24.53.46,1.52.71,1.25.43,1.34.75,1.43.24.76.68,1.3.22.67.35.55.19.77c.52,1.1.77,1.64,1.29,2.74l.23.72.28.66.38.73.15.59.37.6.26.9-.04.62-.63.54-.72.27h-.77s-.86.09-.86.09l-.77.32c-.63.09-.94.13-1.56.22M311.26,121.51l.08-.77-.35-.65c-.29-.79-.43-1.18-.72-1.97l-.13-.54c-.43-1.1-.63-1.65-1.04-2.76l-.1-.65-.26-.71-.16-.73-.21-.66-.16-.78-.46-1.34-.18.08.05.7-.08.77.13,1.39-.03.81-.14.68.11.7-.09.66.05.99c-.07,1.88-.1,2.82-.17,4.7l.31.75.72.13.62-.2.84-.04.6-.04.77-.5"/>
  <path class="cls-1" d="M331.74,131.79l-.73.24-1.17.09-1.16.16-.9-.11-.52-.57-.05-.84-.24-.71-.09-1.07c-.22-.96-.33-1.44-.55-2.41l-.05-.84c-.22-1-.33-1.51-.56-2.5-.11-.72-.17-1.08-.28-1.8l-.18-.68c-.18-1.31-.26-1.97-.45-3.28l-.37-1.17-.26-1.42-.09-1.3c-.29-1.29-.44-1.94-.74-3.23l-.2-1.38-.18-.67c-.15-1.05-.23-1.58-.38-2.63l-.31-1.13-.13-.68-.03-.66-.15-.83-.25-.57.31-.96.67-.54,1.51-.24.92-.03.7-.18.8-.15c.92-.25,1.4-.36,2.31-.6,1.5-.2,2.25-.31,3.75-.52,1.27.15,1.9.22,3.16.37l1.41.41c1.18.82,1.77,1.23,2.95,2.03.64,1.06.95,1.6,1.59,2.65l.26.71.17.77c.26.8.38,1.2.65,2,.03.66.04,1,.07,1.66l-.09.73.03.81-.14.7-.43,1.52-.22.58-.54.6-.31.68-.47.86-.58.42-.31.88.14.88c.66,1.02,1,1.52,1.67,2.54l.47.47c.48.76.73,1.13,1.23,1.89l.48.55.44.86.45.42c.5.76.75,1.13,1.24,1.88l.54.54.44.57.02.76-.69.44-.9.15-1.5.52-.9.2c-.74.03-1.11.03-1.86.06l-.95-.6-.36-.69-.43-.58-.71-1.23-.49-.6-.35-.69c-.51-.7-.77-1.05-1.28-1.74l-.42-.77c-.63-.97-.94-1.46-1.57-2.44l-.82-.54-1.05-.16-.79.58-.2.8c.15.86.22,1.29.37,2.16l.37,1.4.04.75c.2.71.31,1.08.51,1.8.1.71.15,1.07.25,1.8l.39,1.45-.41.79-.71.66-.83.02ZM326.99,97.32l-1.01-.46-.53-.47-1.26-1-.49-.57-.67-.48-.55-.42-.58-.55-.26-.53.39-.26.67-.23,1.48-.28.64-.16.94.19.87.45.65.63.91.24.58-.49.41-.8.62-.75.88-.6.69-.2,1.09-.28,1.02-.21.55.31-.12.6-.26.62-.43.67-.33.73-.29.72-.45.62-.38.75-.25.66-.82.74-.98.43-.88.27-.79.15-1.08-.07M334.21,114.12l.67-.42.6-.47.58-.6.33-.59.25-.72.13-.83-.06-1.46-.12-1.06-.37-1.02-.29-.89-.51-.75-.43-.43-.6-.54-.78-.22-.77-.08c-.77.04-1.17.07-1.95.11l-1.14.23-.77.58-.27.87.31,1.35c.08.63.13.94.2,1.57l.25.71c.35,1.8.53,2.71.88,4.53l.43.67.89.2c1-.29,1.51-.44,2.52-.74"/>
  <path class="cls-1" d="M229.08,223.08c-4.95,0-8.98-4.02-8.98-8.98s4.03-8.98,8.98-8.98,8.98,4.02,8.98,8.98-4.03,8.98-8.98,8.98M229.08,207.26c-3.78,0-6.84,3.07-6.84,6.84s3.06,6.85,6.84,6.85,6.84-3.07,6.84-6.85-3.06-6.84-6.84-6.84"/>
  <path class="cls-1" d="M229.48,218.7c-2.76,0-4.99-2.25-4.99-4.99s2.24-4.99,4.99-4.99,4.99,2.24,4.99,4.99-2.24,4.99-4.99,4.99M229.48,210.85c-1.57,0-2.86,1.28-2.86,2.86s1.28,2.85,2.86,2.85,2.86-1.28,2.86-2.85-1.28-2.86-2.86-2.86"/>
  <path class="cls-1" d="M219.8,201.64c-4.96,0-9.13-3.4-10.31-7.99v-.11c0-2.81,1.1-5.45,3.09-7.44,3.19-3.2,8.39-3.2,11.58,0,2.47,2.46,2.47,6.47,0,8.93-.91.91-2.12,1.4-3.41,1.4s-2.49-.49-3.4-1.4c-.69-.69-1.06-1.6-1.06-2.57s.37-1.88,1.06-2.57c1.04-1.03,2.73-1.03,3.77,0,.75.75.75,1.96,0,2.7v1.64h1.64c1.65-1.64,1.65-4.33,0-5.97-1.95-1.94-5.11-1.94-7.05,0-1.13,1.12-1.74,2.62-1.74,4.2s.61,3.08,1.74,4.21c1.34,1.34,3.14,2.08,5.04,2.08s3.71-.74,5.05-2.08c3.37-3.38,3.37-8.86,0-12.22-1.98-1.99-4.63-3.09-7.43-3.09-2.04,0-4,.6-5.67,1.68,1.89-1.69,4.38-2.75,7.11-2.75,5.89,0,10.67,4.79,10.67,10.68s-4.78,10.66-10.67,10.66M219.8,177.98c-7.16,0-12.99,5.83-12.99,12.99s5.83,12.99,12.99,12.99,12.99-5.83,12.99-12.99-5.83-12.99-12.99-12.99"/>
  <path class="cls-1" d="M291.98,229.08c-1.25,1.88-3.29,3.85-5.91,5.69-5.73,4.02-13.69,7.24-22.42,9.05-5.56,1.15-11.25,1.68-16.46,1.51-4.93-.15-9.31-.89-12.69-2.17-3.73-1.39-6.03-3.35-6.48-5.54-.62-2.99,2.1-6.73,7.45-10.23,1.65-1.08,3.51-2.1,5.52-3.06.53,1.85,1.17,3.52,1.9,4.89,1.01,1.88,2.08,3.05,3.19,3.46l1.38.12c2.99-.62,3.32-6.42,2.36-11.91,1.23-.38,2.48-.75,3.76-1.09l.19.98c.54,2.65,1.35,5.09,2.33,7.04,1.06,2.14,2.21,3.45,3.39,3.89l1.39.12c3.18-.66,3.35-7.18,2.15-12.96l-.23-.97c1.31-.2,2.6-.37,3.9-.49.54,2.25,1.25,4.31,2.1,6,1.07,2.13,2.21,3.43,3.39,3.87l1.39.13c1.77-.37,2.43-2.52,2.68-4.26.23-1.69.2-3.82-.09-6.08,4.47.17,8.38.83,11.35,1.93,2.36.88,5.28,2.48,5.82,5.11.31,1.49-.14,3.16-1.34,4.97M247.87,227.86c-.22,2.11-.79,2.65-.89,2.68l-.09-.03c-.88-.33-2.57-2.74-3.78-7.14,1.42-.61,2.92-1.19,4.47-1.74.38,2.31.48,4.48.3,6.22M260.74,219.35c.58,2.78.77,5.45.55,7.53-.23,2.1-.8,2.65-.9,2.68l-.1-.03c-1.04-.38-3.1-3.58-4.27-9.21l-.2-1.07.2-.05c.71-.17,1.41-.32,2.13-.47.74-.15,1.5-.3,2.25-.43l.09-.02.25,1.07ZM273.94,222.82c-.26,1.82-.77,2.29-.85,2.31l-.1-.03c-.94-.36-2.78-3.09-3.97-7.91l.6-.03,1.57-.08.77-.03,1.51-.03h.32c.31,2.19.37,4.22.14,5.79M295.59,223.64c-.6-2.9-3.12-5.26-7.28-6.82-4.37-1.63-10.3-2.32-16.95-2.07h-.2l-1.45.07-.55.04-1.28.1-.4.03h-.04c-2.04.2-4.13.46-6.24.81h-.03l-.35.07c-1.04.17-2.08.37-3.14.59-1.17.23-2.31.49-3.44.78h-.03c-4.66,1.17-9.04,2.66-12.94,4.41h-.02c-2.6,1.17-4.99,2.44-7.07,3.8-6.3,4.11-9.3,8.6-8.46,12.65.62,3.03,3.37,5.54,7.94,7.24,3.62,1.36,8.27,2.15,13.44,2.31,5.39.16,11.26-.37,17-1.57,9.04-1.87,17.31-5.22,23.3-9.43,2.89-2.03,5.08-4.16,6.5-6.3,1.56-2.35,2.12-4.61,1.68-6.72"/>
  <path class="cls-1" d="M267.25,209.56c-3.82,0-6.93-3.11-6.93-6.93s3.11-6.93,6.93-6.93,6.93,3.11,6.93,6.93-3.11,6.93-6.93,6.93M267.25,198.02c-2.54,0-4.61,2.07-4.61,4.61s2.07,4.61,4.61,4.61,4.61-2.07,4.61-4.61-2.07-4.61-4.61-4.61"/>
  <path class="cls-1" d="M265.23,202.01c-.8,0-1.45-.65-1.45-1.45s.65-1.45,1.45-1.45,1.45.66,1.45,1.45-.65,1.45-1.45,1.45"/>
  <path class="cls-1" d="M266.35,207.27c-.8,0-1.45-.65-1.45-1.45s.65-1.45,1.45-1.45,1.45.66,1.45,1.45-.65,1.45-1.45,1.45"/>
  <path class="cls-1" d="M269.31,203.85c-.8,0-1.45-.65-1.45-1.45s.65-1.45,1.45-1.45,1.45.66,1.45,1.45-.65,1.45-1.45,1.45"/>
  <path class="cls-1" d="M129.26,193.12c-2.76,0-4.99-2.25-4.99-4.99s2.24-4.99,4.99-4.99,4.99,2.24,4.99,4.99-2.24,4.99-4.99,4.99M129.26,185.45c-1.47,0-2.67,1.2-2.67,2.67s1.2,2.67,2.67,2.67,2.67-1.2,2.67-2.67-1.19-2.67-2.67-2.67"/>
  <path class="cls-1" d="M297.32,217.74c-2.42,0-4.4-1.97-4.4-4.4s1.97-4.39,4.4-4.39,4.4,1.97,4.4,4.39-1.97,4.4-4.4,4.4M297.32,210.99c-1.29,0-2.35,1.05-2.35,2.35s1.05,2.36,2.35,2.36,2.35-1.05,2.35-2.36-1.05-2.35-2.35-2.35"/>
  <path class="cls-1" d="M198.91,238.95c-1.85,0-3.36-1.51-3.36-3.36s1.51-3.36,3.36-3.36,3.36,1.51,3.36,3.36-1.51,3.36-3.36,3.36M198.91,234.56l-1.04,1.04,1.04,1.04,1.04-1.04-1.04-1.04"/>
  <path class="cls-1" d="M344.74,153.9c-1.85,0-3.36-1.51-3.36-3.36s1.51-3.36,3.36-3.36,3.36,1.51,3.36,3.36-1.51,3.36-3.36,3.36M344.74,149.5l-1.04,1.04,1.04,1.04,1.04-1.04-1.04-1.04"/>
  <path class="cls-1" d="M200.17,195.26c-.92,0-1.66-.75-1.66-1.66s.74-1.66,1.66-1.66,1.66.75,1.66,1.66-.74,1.66-1.66,1.66"/>
  <path class="cls-1" d="M166,205.05c-.92,0-1.66-.75-1.66-1.66s.74-1.65,1.66-1.65,1.66.74,1.66,1.65-.75,1.66-1.66,1.66"/>
  <path class="cls-1" d="M226.25,249.06c-.92,0-1.66-.75-1.66-1.66s.74-1.66,1.66-1.66,1.66.75,1.66,1.66-.74,1.66-1.66,1.66"/>
  <path class="cls-1" d="M279.83,210.27c-.92,0-1.66-.75-1.66-1.66s.74-1.65,1.66-1.65,1.66.74,1.66,1.65-.74,1.66-1.66,1.66"/>
  <path class="cls-1" d="M332.38,196.15c-.92,0-1.66-.75-1.66-1.66s.74-1.65,1.66-1.65,1.66.74,1.66,1.65-.74,1.66-1.66,1.66"/>
  <path class="cls-1" d="M327.04,215.12c-.91,0-1.66-.74-1.66-1.66s.75-1.65,1.66-1.65,1.66.74,1.66,1.65-.74,1.66-1.66,1.66"/>
  <path class="cls-1" d="M220.34,230.75c-.92,0-1.66-.75-1.66-1.66s.74-1.66,1.66-1.66,1.66.75,1.66,1.66-.74,1.66-1.66,1.66"/>
  <path class="cls-1" d="M296.37,172.79c-1.23,0-2.2-1-2.2-2.21s.98-2.2,2.2-2.2,2.2.99,2.2,2.2-.99,2.21-2.2,2.21"/>
  <path class="cls-1" d="M169.94,197.28c-3.67,0-6.65-2.98-6.65-6.65s2.99-6.65,6.65-6.65,6.65,2.99,6.65,6.65-2.99,6.65-6.65,6.65M169.94,186.3c-2.39,0-4.32,1.94-4.32,4.32s1.93,4.34,4.32,4.34,4.32-1.95,4.32-4.34-1.93-4.32-4.32-4.32"/>
  <path class="cls-1" d="M168.02,190.09c-.79,0-1.44-.64-1.44-1.44s.65-1.43,1.44-1.43,1.44.64,1.44,1.43-.65,1.44-1.44,1.44"/>
  <path class="cls-1" d="M169.08,195.1c-.79,0-1.44-.64-1.44-1.44s.65-1.43,1.44-1.43,1.44.64,1.44,1.43-.65,1.44-1.44,1.44"/>
  <path class="cls-1" d="M171.89,191.84c-.79,0-1.44-.64-1.44-1.44s.65-1.43,1.44-1.43,1.44.64,1.44,1.43-.65,1.44-1.44,1.44"/>
  <path class="cls-1" d="M294.79,179.45c-4.14,0-7.49-3.36-7.49-7.5s3.35-7.5,7.49-7.5,7.49,3.35,7.49,7.5-3.36,7.5-7.49,7.5M294.79,166.78c-2.86,0-5.18,2.32-5.18,5.18s2.32,5.18,5.18,5.18,5.18-2.32,5.18-5.18-2.32-5.18-5.18-5.18"/>
  <path class="cls-1" d="M293.8,176.94c-.82,0-1.48-.66-1.48-1.48s.66-1.47,1.48-1.47,1.48.66,1.48,1.47-.66,1.48-1.48,1.48"/>
  <path class="cls-1" d="M120.46,186.34c-.1,1.9-1.13,3.38-3,4.33-.82-1.61-1.17-2.94-1.11-4.14.09-1.59.89-3.11,2.59-4.84,1.04,1.4,1.6,3.11,1.52,4.65M103.84,183.08c-1.74-.23-3.45-1.48-4.57-3.28,1.95-.93,3.51-1.24,4.87-.96,1.3.26,2.51,1.07,3.86,2.59l.03.03c-1.28,1.25-2.71,1.8-4.19,1.62M98.39,153.32c.07-1.2.6-2.48,1.46-3.52,1.23,1.51,1.76,2.82,1.69,4.12-.05.94-.41,1.96-1.11,3.16-1.42-.9-2.12-2.19-2.04-3.75M104.75,166.46c.1-1.81.77-3.34,3.56-4.74.19.71.27,1.44.24,2.14-.06,1.19-.56,3.81-3.73,4.25l-.07-1.66ZM112.65,171.28c.77,1.3,1.17,2.81,1.1,4.18-.12,2.17-1.35,3.77-3.5,4.59-.54-1.43-.77-2.61-.72-3.68.07-1.24.51-2.92,3.13-5.09M111.38,194.39c-1.75-.04-3.57-1.09-4.86-2.74,1.83-1.15,3.35-1.62,4.74-1.5,1.32.11,2.62.79,4.14,2.16-1.15,1.4-2.52,2.11-4.02,2.08M98.84,169.35c-1.31-.5-2.44-1.82-3.01-3.42,3.19-.63,4.94.19,6.49,3.02-1.2.68-2.4.82-3.48.4M121.35,190.43c.86-1.13,1.34-2.5,1.43-3.96.13-2.55-.97-5.27-2.94-7.27l-1.61-.04c-2.73,2.49-4.07,4.8-4.19,7.26v.16c-1.02-1.42-1.98-2.88-2.88-4.38,1.35-.53,2.46-1.29,3.29-2.3.97-1.18,1.52-2.67,1.62-4.3.13-2.31-.69-4.75-2.23-6.7l-1.6-.21c-2.86,2.08-4.4,4.11-4.87,6.42-.72-1.54-1.39-3.11-1.98-4.71,1.46-.26,2.71-.88,3.64-1.86,1.11-1.17,1.74-2.72,1.84-4.53.08-1.46-.21-2.96-.83-4.32l-1.5-.6c-2.76,1.13-4.5,2.54-5.4,4.37-.4-1.52-.76-3.06-1.06-4.62,1.14-1.77,1.73-3.3,1.79-4.79.12-2.22-.88-4.36-3.13-6.75l-1.61-.07c-1.79,1.57-2.93,3.8-3.05,5.97-.14,2.63,1.22,4.85,3.73,6.18.32,1.62.69,3.21,1.11,4.79l-.17-.09c-1.74-.83-3.86-.87-6.67-.11l-.83,1.34c.54,2.88,2.41,5.32,4.76,6.22,1.65.64,3.45.49,5.16-.4.74,1.95,1.56,3.87,2.45,5.75l-1.03-.31c-2.15-.43-4.52.11-7.45,1.74l-.5,1.5c1.36,3.02,4.07,5.22,6.9,5.58,2.02.26,3.98-.4,5.68-1.89.93,1.52,1.91,3,2.93,4.44l-.69-.09c-2.19-.2-4.48.6-7.23,2.54l-.34,1.54c1.68,2.85,4.6,4.73,7.44,4.8,2.13.05,4.09-.92,5.66-2.72.71.8,1.44,1.59,2.19,2.36l1.64.02.34-.77-.32-.87c-.69-.7-1.35-1.43-2.02-2.16,1.03-.57,1.89-1.28,2.53-2.13"/>
  <path class="cls-1" d="M303.82,199.55l-.48-.1c-.18-.09-4.43-2.04-4.37-7.18.04-4.73,3.89-10.37,4.06-10.6l.96-.51.96.53c.15.24,3.88,5.95,3.84,10.69-.05,5.14-4.34,7.01-4.53,7.09l-.44.09ZM303.96,184.56c-1.07,1.87-2.65,5.06-2.67,7.73-.03,2.76,1.69,4.22,2.54,4.77.87-.54,2.61-1.97,2.64-4.72.03-2.66-1.47-5.89-2.51-7.78"/>
  <path class="cls-1" d="M301.76,207.4l-.35-.06-.76-1.45c1.42-4.49,2-8.4,2-8.44.09-.64.42-.28,1.05-.18.63.08,1.34-.13,1.24.51-.03.16-.6,4.13-2.08,8.81l-1.11.81Z"/>
  <path class="cls-1" d="M181.61,240.92c-2.26-1.41-4.16-4.42-5.2-6.3,2.15.1,5.68.5,7.94,1.91,2.34,1.46,2.65,3.7,2.65,4.71-.92.43-3.05,1.14-5.39-.32M196.15,243.32c-2.88-.77-5.39-1.7-6.83-2.29-.05-1.58-.6-4.52-3.73-6.48-4.02-2.51-10.83-2.31-11.13-2.3l-.94.54-.08,1.09c.12.26,2.92,6.48,6.93,8.99,3.59,2.25,6.86.88,7.99.26,1.5.61,4.11,1.59,7.18,2.41l1.28-.49.14-.32-.82-1.42Z"/>
  <path class="cls-1" d="M154.65,198.03c-.66.95-1.77,2.03-3.19,3.1-3.19,2.42-7.7,4.61-12.37,6.02-2.35.7-4.71,1.22-7.04,1.52-3.31.44-6.41.43-8.75-.03-2.25-.45-3.24-1.2-3.39-1.72-.16-.54.46-2.08,3.85-4.3,1.45-.96,3.19-1.9,5.11-2.77-1.05,1.68-1.64,2.99-1.76,3.99-.08.64.37,1.22,1.01,1.29h.29l1-1.01c.15-1.3,2.03-4.08,3.18-5.52l.18-.34c.9-.33,1.83-.64,2.78-.94v.02c-1.22,1.85-1.87,3.27-2.01,4.34-.08.65.38,1.22,1.01,1.3h.3l1-1.02c.15-1.3,2.03-4.08,3.18-5.52l.08-.13c1.1-.27,2.19-.52,3.25-.72l-.27.42c-1.21,1.85-1.86,3.27-1.99,4.34-.08.63.37,1.22,1.01,1.29h.3s.99-1.01.99-1.01c.17-1.3,2.04-4.08,3.19-5.52l.02-.04c6.54-.83,9.42.26,9.69,1.17.11.38-.13,1.05-.65,1.8M157.52,195.57c-.45-1.49-1.96-2.46-4.48-2.88-2.07-.35-4.83-.31-7.99.11-2.96.38-6.23,1.11-9.47,2.09-5.13,1.54-9.77,3.6-13.1,5.79-3.75,2.48-5.41,4.87-4.79,6.92,1.06,3.53,8.13,4.25,14.67,3.38,2.45-.32,4.93-.86,7.41-1.6,4.99-1.51,9.63-3.78,13.09-6.38,3.62-2.74,5.27-5.38,4.65-7.43"/>
  <path class="cls-1" d="M342.91,194.92c-4.95,0-8.98-4.02-8.98-8.98s4.03-8.98,8.98-8.98,8.98,4.02,8.98,8.98-4.03,8.98-8.98,8.98M342.91,179.11c-3.78,0-6.84,3.07-6.84,6.84s3.06,6.84,6.84,6.84,6.84-3.06,6.84-6.84-3.06-6.84-6.84-6.84"/>
  <path class="cls-1" d="M343.31,190.55c-2.76,0-4.99-2.25-4.99-4.99s2.24-4.99,4.99-4.99,4.99,2.24,4.99,4.99-2.24,4.99-4.99,4.99M343.31,182.69c-1.57,0-2.86,1.28-2.86,2.86s1.28,2.85,2.86,2.85,2.86-1.28,2.86-2.85-1.28-2.86-2.86-2.86"/>
  <path class="cls-1" d="M156.95,222.92c-1.02,0-1.85-.83-1.85-1.85s.83-1.85,1.85-1.85,1.85.83,1.85,1.85-.83,1.85-1.85,1.85"/>
  <path class="cls-1" d="M162.65,220.83c-.89,0-1.62-.72-1.62-1.62s.72-1.61,1.62-1.61,1.62.72,1.62,1.61-.72,1.62-1.62,1.62"/>
  <path class="cls-1" d="M160.84,226.9c-.66,0-1.18-.53-1.18-1.18s.53-1.18,1.18-1.18,1.18.53,1.18,1.18-.53,1.18-1.18,1.18"/>
  <path class="cls-1" d="M154.45,228.95c-.89,0-1.62-.72-1.62-1.62s.72-1.61,1.62-1.61,1.62.72,1.62,1.61-.72,1.62-1.62,1.62"/>
  <path class="cls-1" d="M150.59,222.44c-.89,0-1.62-.72-1.62-1.62s.72-1.61,1.62-1.61,1.62.72,1.62,1.61-.72,1.62-1.62,1.62"/>
  <path class="cls-1" d="M155.25,217.32c-.89,0-1.62-.72-1.62-1.62s.72-1.61,1.62-1.61,1.62.72,1.62,1.61-.72,1.62-1.62,1.62"/>
  <path class="cls-1" d="M354.66,173.32c-1.06.74-1.71.77-1.83.73-.33-.3.19-2.27.54-3.59.48-1.84,1.06-4.03,1.23-6.53.83,1.19,2.32,1.89,3.42,2.39l.99.48c-.92,3.14-2.71,5.38-4.35,6.52M352.16,150.26c.13-.1.64-.13,1.43.25,1.61.76,3.78,2.88,5.03,6.23l-.71.44c-1.13.68-2.65,1.62-3.44,2.98-.31-2.39-1.02-4.46-1.62-6.19-.57-1.65-1.15-3.34-.69-3.7M359.28,159.08c.18.9.31,1.85.33,2.88.03.87-.03,1.69-.13,2.48l-.48-.22c-1.18-.54-2.65-1.23-2.7-2.2-.04-1.11,1.68-2.14,2.82-2.83l.16-.1ZM361.02,156.57v-.04s-.02-.03-.02-.03c-1.36-4.08-3.97-6.94-6.41-8.09-1.53-.72-2.9-.72-3.85,0-1.78,1.38-1,3.67-.09,6.31.71,2.03,1.58,4.57,1.66,7.43.09,2.93-.62,5.58-1.19,7.71-.72,2.72-1.29,4.88.35,6.07.53.37,1.18.52,1.94.42l1.7-.59c3.42-1.8,7.02-6.92,6.83-13.88-.06-1.95-.39-3.73-.92-5.33"/>
  <path class="cls-1" d="M114.74,129.39l-.63-.23-1.11-.58c-.65-.37-.98-.56-1.62-.94l-.52-.45-.44-.58c-.5-.72-.76-1.09-1.25-1.81l-.36-.7-.08-.79-.2-.67-.28-1.5-.06-1.49.02-1.43-.02-.77.12-.74c.12-1.23.19-1.85.31-3.08.78-2.88,1.17-4.31,1.95-7.2l.27-.75.2-.62.42-.71.2-.67.37-.68.27-.74.46-.48.92-1.41.39-.62,1.34-1.32.92-.6,1.3-.53.78-.2.75-.27.68.02.65-.05.83.03.75-.08,1.16.35,1.06.27.89.14.67.53.77.3,1.22.72.62.56.6.64.22.86-.34.73c-.83.72-1.25,1.09-2.08,1.81l-.83.21-1.48-.74-.6-.42-.64-.22-1.13-.29c-.7-.03-1.05-.05-1.75-.09l-1.14.71-.46.48-.47.55-.4.68-.26.71-.4.67-.32.79-.24.85-.25.66-.14.88-.26.74-.11.7-.27.8c-.41,2.08-.6,3.13-1,5.22l-.2.62-.03,1.52-.18.77.08.83.12.6.03.82.19.81.37.65.5.59.62.43,1.22.36,1.13.24.81.08.66.04c.66-.11.99-.16,1.65-.27l.78-.32h.71s.59.65.59.65l.23.66.25.53.19.89.22.71-.16.78-.45.71-.71.25-1.13.48-1.56.26-1.08-.03c-1.45-.15-2.18-.22-3.62-.38l-1.17-.39ZM121.12,94.79l-.75-.83-.29-.64-.76-1.4-.23-.72-.42-.71-.35-.6-.32-.74v-.58s.44-.09.44-.09l.71.07,1.47.32.65.1.81.55.6.76.34.83.75.6.72-.23.71-.57.86-.43,1.06-.2.7.09,1.11.19,1.02.21.37.5-.34.5-.48.47-.67.43-.6.54-.54.55-.66.39-.65.53-.49.52-1.05.35h-1.07s-.9-.09-.9-.09l-.79-.18-.97-.49"/>
  <path class="cls-1" d="M130.97,132.22l-.75-.14-.8-.39-.14-.88c.81-4.42,1.22-6.63,2.03-11.04l.04-.75.23-.71c.43-2.12.64-3.18,1.05-5.29l.05-.8.13-.69.22-.62.1-.83.03-.66.22-.67c.14-.78.22-1.17.37-1.97l.1-1.03.22-.71.06-.8.23-.48.1-.74.04-.75.21-1.38.41-.59,1.09-.18c.94.18,1.41.26,2.36.44l1.05.09,1.56.27.83.2.75.13.75.18,1.03.18,1.2.06.7.2h.83l.68.26.75.17.7.44.35.85c-.23,1.2-.34,1.79-.57,2.98l-.33.55-.89.38-.76-.13-.83-.27-.75.06c-.77-.08-1.15-.13-1.91-.22-.69-.22-1.03-.32-1.72-.54h-.79s-.87.28-.87.28l-.5.57-.18.73c-.07.63-.11.94-.18,1.57l-.17.67-.08.75-.24.81-.2,1.39.26.8.79.56.79.04c1.07.23,1.61.34,2.69.55.82.1,1.23.15,2.05.25l.61.2.81.51.19.69-.02.71-.31,1.36-.03.84-.51.67-.77.11c-1.15-.22-1.72-.33-2.87-.56l-1.24-.07-1.16-.25-1.13-.15-.88.18-.53.66-.18.77-.08.69-.15.59c-.26,1.71-.39,2.57-.65,4.28l.2.84.67.54h.81l.83.28,1.15.11,1.22.39.78.18.83-.06.67.21.93-.04.61.62.23.79-.2,1.23c-.08.75-.11,1.12-.19,1.85l-.54.49-.88.33-.66-.02-1.36-.18-1.07-.37-1.5-.25-.83.04-.84-.14c-.63-.2-.94-.31-1.57-.51l-.74-.13-.77-.04c-1.01-.13-1.52-.19-2.53-.32l-.72-.27Z"/>
  <path class="cls-1" d="M155.84,136.72l-.79-.2-1.45-.67-.72-.3-1.28-1.03-.66-.33-.6-.47-.28-.84.25-.95.42-.45.41-.7.54-.53.49-.59.86-.3.79.12.48.49.65.47c.81.4,1.22.6,2.04.99.98.1,1.46.14,2.45.25l.68-.2.75-.32,1.05-1.05.34-.75.31-1.23.13-1.02-.06-.76-.36-1.51c-.55-.8-.83-1.2-1.39-2.01l-1.53-1.19-1.5-1.43-.62-.46-.6-.7-.54-.36-.92-1.22-.78-1.39c-.31-.88-.46-1.34-.77-2.23l-.12-.82-.04-.71c.14-1.18.2-1.77.34-2.95.4-.83.6-1.24,1-2.08l.43-.59,1.13-1.11.44-.36.63-.38,1.34-.6.78-.08.71-.23.82-.03.71-.19,1.23.12,1.11.29.77.09c.84.28,1.27.42,2.12.69l.53.4,1.26.71.57.45.21,1-.3.9c-.59.7-.88,1.05-1.47,1.74l-.77.37-.89-.3c-.75-.36-1.12-.54-1.87-.89-.79-.03-1.19-.04-1.98-.07l-1.05.27-.69.43-.43.6-.28,1-.2,1.14.24.74.27.51.33.79.91,1.26,1.05,1.03c.76.66,1.14.99,1.9,1.65.67.66,1,1,1.68,1.67l.49.38.58.59.31.7.37.6.47.71c.27.84.42,1.25.7,2.09l.02.71.14.96v1.73c-.19.75-.28,1.12-.47,1.87l-.24.82-.62,1.38-.47.55-.38.66-.53.59-.56.45-.66.43-.62.49-.65.33-.76.33-.83.09-.77.14c-.63.09-.94.14-1.57.22l-.92-.03-1.21-.16h-1.12s-.88-.27-.88-.27Z"/>
  <path class="cls-1" d="M175.22,138.62l-.79-.22-.63-.31-.29-1.1.25-1.39-.02-1.27c.13-1.23.2-1.85.33-3.1l.17-.73-.03-.75c.31-2.71.47-4.06.77-6.76l-.03-.66.09-.74.21-.63.05-.94c.12-1.14.19-1.72.31-2.87l-.02-.8.2-.87.07-.65-.03-.66.22-1.2c.11-1.57.16-2.34.27-3.91l.17-.64-.05-1.41.41-.66.75-.34.71.07.77-.02.8.18.66.02.76.12.73.4.37.64.14.62.03.71-.12.74c-.04.91-.07,1.37-.11,2.28l-.12.74c-.18,1.84-.26,2.75-.43,4.59l.03.8.14.53.58.1.61-.31.73-.5.58-.51.44-.52.47-.43.89-1.28.3-.62.45-.71.25-.67c.42-.81.62-1.22,1.04-2.02l.2-.68.29-.63.11-.78.28-.54.48-.66.84-.4c.88.03,1.31.05,2.19.08l.8.25.72-.09.69.37.23.85-.29.69-.48,1.45-.14.69c-.45,1.13-.67,1.68-1.12,2.82l-.32.44-.77,1.34-.3.77-.83,1.16-.58.56-.44.66-.43.43-1.11,1.17-.47.85v.74s.17.86.17.86l.56,1.5.14.71.34.73c.6,1.71.9,2.56,1.51,4.27l.34.77.14.66.61,1.35.31,1.15.48,1.11.11.57.29.9c.37.79.55,1.18.93,1.97l-.26.83-1.13.2-.8-.15-.87-.02c-.7-.07-1.05-.1-1.75-.17l-1.35-.3-.69-.9-.4-1.34-.54-1.4-.3-.64c-.29-.92-.43-1.38-.71-2.3l-.31-.54-.17-.86-.53-1.4-.29-.69-.14-.71-.27-.77-.43-1.34-.29-.68-.22-.82-.58-.66-.47.14-.26.77c-.29,3.28-.43,4.93-.72,8.21l-.16.68-.03.71-.16.73.05,1.12-.12.69-.47,1.17-.88.2-.77.07c-1-.12-1.51-.17-2.52-.3"/>
  <path class="cls-1" d="M204.81,140.6l-.42-.77.16-1.24.04-1.03-.11-.79.2-.84-.08-.6c.09-.93.14-1.4.21-2.31l-.03-1.5.14-.69-.03-1.46c-.08-.89-.11-1.34-.19-2.25l-.41-.67c-.61-1.93-.92-2.9-1.52-4.83l-.3-.71-.2-.9-.31-.57-.4-1.47-.26-.67-.4-1.46-.55-1.38-.35-1.39-.35-.62c-.31-1.16-.47-1.74-.78-2.89l-.3-.67.04-.66.79-.41,1.52.03.8.19c.65-.02.98-.03,1.62-.04l.79.46.62.73c.47,1.44.7,2.16,1.17,3.6l.31.66c.27.88.4,1.31.67,2.18l.2.85c.27.83.41,1.25.68,2.08l.12.61.47,1.51.25.1c.38-1.33.58-1.99.95-3.31l.43-.87.22-.79c.32-.84.48-1.26.8-2.11l.18-.74.4-.54.13-.78.71-1.28.22-.83.64-.63.88-.39.94.17,1.48.08,1.52-.14.65.39.13.66c-.41,1.14-.61,1.72-1.03,2.86l-.4.6-.11.79-.36.65-.2.64-.41.69-.16.74-.41.74c-1.06,2.67-1.6,4-2.69,6.67l-.43.73-.17.83-.27.54-.68,1.28-.29,1.06-.19,1.16c-.07,1.17-.09,1.75-.16,2.93.05.73.08,1.1.14,1.82-.09.72-.14,1.09-.22,1.81l.08.7v1.26c-.09.72-.13,1.09-.21,1.81l-.43.77-.77.29-.86-.12-.76-.03c-.77.05-1.16.09-1.93.14l-1.2-.43ZM206.03,105.93l-.07-.56.36-.59.46-.73.32-.63.41-.68.44-.54.32-.77.82-.53.86-.34.75.09,1.07.08,1.13.04.4.34-.02.56-.49.59-.4.63-.49.73-.41.73-.6.91-1.17.88-.95.14-.62.03-1.15.09-.97-.47"/>
  <path class="cls-1" d="M212.82,221.9v4.69h-36.48v-4.69h36.48ZM186.96,197.66l20.72,7.91h-29.59c2.29-2.08,6.06-5.43,8.86-7.91M176.34,219.58v-5.25h36.48v5.25h-36.48ZM212.82,207.91v4.1h-36.48v-4.1h36.48ZM215.14,206.72l-.02-.14v-.09s-.04-.12-.04-.12l-.03-.1-.06-.1-.05-.09-.09-.1-.06-.07-.09-.09-.09-.06-.09-.05-.11-.05-.03-.02-27.25-10.41-1.18.21s-2.82,2.49-5.63,5c-5.79,5.16-5.98,5.44-6.11,5.63l-.03.07-.07.14-.04.13-.03.08-.03.23h0v21.01c0,.65.52,1.17,1.16,1.17h38.8c.64,0,1.16-.52,1.16-1.17v-21.02Z"/>
  <path class="cls-1" d="M328.43,177.43c-4.32,1.63-8.92,1.8-12.92.49-4.07-1.33-7.06-4.04-8.41-7.62-.77-2.08-.54-4.36.69-6.44,1.21-2.07,3.32-3.74,5.92-4.72,1.6-.6,3.19-.88,4.8-.84-.36.59-.69,1.2-.98,1.82-1.11.07-2.18.29-3.2.66-2.24.84-4.02,2.25-5.03,3.96-.95,1.62-1.15,3.37-.56,4.94h0c1.19,3.16,3.86,5.53,7.54,6.66,3.57,1.11,7.66.91,11.54-.54,3.78-1.43,6.93-3.91,8.9-6.99l.14-.2c2.01-3.28,2.46-6.82,1.28-9.98-.57-1.51-1.71-2.63-3.29-3.25-1.49-.59-3.27-.68-5.19-.28-3.01.64-5.53,2.28-7.28,4.74-1.68,2.37-2.48,5.29-2.25,8.26l-.22.64-.6.3-.94-.81c-.26-3.37.65-6.71,2.58-9.4,1.98-2.79,4.94-4.72,8.35-5.45,4.84-1.02,9.05.84,10.48,4.64,1.34,3.57.88,7.58-1.29,11.27-2.14,3.62-5.71,6.53-10.05,8.16M321.65,170.23c.56-.65.83-1.47.77-2.32-.11-1.51.1-3,.6-4.37,2.67,1.18,4.54,2.88,4.61,2.94.62.59,1.43.89,2.29.88.84-.03,1.64-.38,2.23-1l.38-.49c.34-.54.51-1.16.49-1.8-.03-.85-.37-1.65-1-2.24-.24-.21-2.03-1.86-4.81-3.36.88-.51,1.86-.89,2.91-1.11,2.83-.6,5.12.21,5.82,2.08.94,2.47.54,5.29-1.08,7.95-1.69,2.75-4.48,4.96-7.87,6.24-3.39,1.28-6.96,1.46-10.03.51-2.98-.92-5.13-2.79-6.06-5.26h0c-.34-.91-.2-1.95.38-2.94.74-1.26,2.1-2.31,3.85-2.97l1.47-.41c-.53,1.87-.73,3.85-.59,5.85.14,1.75,1.67,3.08,3.43,2.95.86-.07,1.63-.46,2.19-1.11M324.25,161.16l.95-1.12c3.09,1.48,5.13,3.39,5.22,3.48l.27.61-.24.62-.61.28-.63-.25s-2.11-1.95-5.16-3.33l.19-.3ZM341.94,157.17c-.91-2.42-2.68-4.29-5.09-5.38-2.36-1.07-5.14-1.31-8.04-.71-3.39.71-6.41,2.47-8.67,4.99-2.47-.31-4.85-.03-7.26.88-3.1,1.17-5.62,3.2-7.11,5.72-1.57,2.69-1.89,5.68-.85,8.43,1.61,4.25,5.1,7.45,9.86,9.02,4.51,1.47,9.65,1.28,14.47-.53,4.6-1.74,8.45-4.78,10.88-8.61l.34-.54c2.54-4.31,3.06-9.03,1.46-13.28"/>
  <path class="cls-1" d="M315.45,220.91c-1.03.02-3.31.1-5.61.61.83-1.01,1.62-2.05,2.37-3.13,1.75-.81,4.41-1.87,6.32-2.36-.39.71-.8,1.41-1.22,2.1-.59.94-1.2,1.87-1.85,2.77M306.69,215.68c.69-.94,1.34-1.91,1.96-2.91l.34-.56c.92,1.73,1.71,3.75,1.49,4.72-.94,1.35-1.95,2.65-3.01,3.91-.11-2.03-.55-4.18-.77-5.16M315.5,189.26l.73.78c2.44,2.66,2.75,3.39,2.77,3.47v.03c-.16,1.8-.42,3.57-.78,5.33l-1.02-1.46c-.91-1.26-1.79-2.36-2.11-2.74.24-1.78.38-3.58.41-5.4M325.48,189.65c-.03,2.25-.19,4.5-.48,6.71-.56.33-1.74,1.02-2.99,1.85l-1.59,1.11c.37-1.79.63-3.61.8-5.45.29-.47,2.17-2.3,4.26-4.23M322.96,205.73c-1.42.39-3.64,1.49-4.13,1.74l-1,.52c.61-1.54,1.16-3.1,1.61-4.69l.11-.15c.17-.3.88-1.21,3.78-3.12l1.24-.79c-.41,2.2-.95,4.37-1.61,6.5M314.63,197.48l.74,1c1.92,2.64,2.04,3.38,2.05,3.43l.03.17c-.51,1.83-1.13,3.63-1.85,5.4-.78-1.74-1.95-3.33-2.54-4.08.66-1.93,1.18-3.91,1.57-5.91M312.18,205.79l.67,1.05c.98,1.62,1.43,2.96,1.32,3.8-.6,1.22-1.24,2.42-1.95,3.58l-.68-1.66c-.49-1.05-1.02-1.97-1.34-2.51.73-1.39,1.4-2.82,1.98-4.27M319.78,213.66c-1.21.04-2.94.5-5.27,1.38l-.2.08c.65-1.1,1.27-2.21,1.82-3.35.3-.37,1.62-1.28,3.82-2.39.78-.39,1.5-.72,2.09-.98-.66,1.8-1.42,3.55-2.27,5.27M327.65,187.18l-.71-1-1.18.16c-.6.54-2.67,2.42-4.33,4.03.05-1.82.02-3.68-.12-5.53l-1.18-1.07-1.03,1.07c.14,1.81.18,3.62.12,5.41l-1.31-1.48c-1.39-1.51-2.71-2.84-2.77-2.89l-1.22-.29-.65.96c.34,8.93-1.92,17.58-6.53,25.03-.67,1.08-1.39,2.14-2.15,3.15l-.15.84c.56,2.25,1.22,6.36.6,7.78l-.03.16c-1,1.01-2.06,1.99-3.16,2.91l-.04,1.51.26.2,1.31-.06c1.11-.94,2.19-1.93,3.22-2.97l.17-.08c3.05-2.08,9.32-1.98,9.38-1.98l.87-.42c.77-1.06,1.51-2.18,2.2-3.29,5.94-9.58,8.86-20.69,8.44-32.15"/>
  <path class="cls-1" d="M136.88,221.46c-2.17,0-3.93-1.77-3.93-3.94s1.76-3.93,3.93-3.93,3.93,1.77,3.93,3.93-1.76,3.94-3.93,3.94M136.88,215.42c-1.16,0-2.1.94-2.1,2.1s.94,2.11,2.1,2.11,2.1-.94,2.1-2.11-.94-2.1-2.1-2.1"/>
  <path class="cls-1" d="M109.37,153.43c-2.17,0-3.93-1.77-3.93-3.94s1.76-3.93,3.93-3.93,3.93,1.77,3.93,3.93-1.76,3.94-3.93,3.94M109.37,147.39c-1.16,0-2.1.94-2.1,2.1s.94,2.11,2.1,2.11,2.1-.95,2.1-2.11-.94-2.1-2.1-2.1"/>
  <path class="cls-1" d="M347,167.84c-.92,0-1.66-.75-1.66-1.66s.74-1.65,1.66-1.65,1.66.74,1.66,1.65-.75,1.66-1.66,1.66"/>
  <path class="cls-1" d="M168.78,240.03c-1.23,0-2.2-1-2.2-2.21s.98-2.2,2.2-2.2,2.2.99,2.2,2.2-.99,2.21-2.2,2.21"/>
  <path class="cls-1" d="M140.97,190.34c-1.23,0-2.2-1-2.2-2.2s.98-2.21,2.2-2.21,2.2.99,2.2,2.21-.99,2.2-2.2,2.2"/>
  <path class="cls-1" d="M239.82,183.57c-.79,0-1.44-.64-1.44-1.44s.65-1.43,1.44-1.43,1.44.64,1.44,1.43-.65,1.44-1.44,1.44"/>
  <path class="cls-1" d="M202.11,186.76c-2.39,2.78-6.6,3.1-9.37.71-2.78-2.38-3.1-6.59-.71-9.38,2.39-2.77,6.59-3.1,9.37-.71,2.78,2.4,3.1,6.6.71,9.38M193.78,179.6c-1.55,1.81-1.34,4.54.46,6.11,1.82,1.55,4.55,1.34,6.11-.48,1.55-1.8,1.34-4.54-.46-6.09-1.82-1.57-4.56-1.34-6.11.46"/>
  <rect class="cls-1" x="193.29" y="181.59" width="2.03" height="2.03" transform="translate(-13.2 15.15) rotate(-4.32)"/>
  <rect class="cls-1" x="197.79" y="184.04" width="2.03" height="2.03" transform="translate(-13.37 15.5) rotate(-4.32)"/>
  <rect class="cls-1" x="197.15" y="179.78" width="2.03" height="2.03" transform="translate(-13.06 15.44) rotate(-4.32)"/>
  <path class="cls-1" d="M213.41,248.56c-4.14,0-7.49-3.36-7.49-7.5s3.35-7.5,7.49-7.5,7.49,3.35,7.49,7.5-3.35,7.5-7.49,7.5M213.41,235.89c-2.86,0-5.18,2.32-5.18,5.18s2.32,5.18,5.18,5.18,5.18-2.32,5.18-5.18-2.32-5.18-5.18-5.18"/>
  <path class="cls-1" d="M211.18,240.27c-.82,0-1.48-.66-1.48-1.48s.66-1.47,1.48-1.47,1.48.66,1.48,1.47-.66,1.48-1.48,1.48"/>
  <path class="cls-1" d="M212.41,246.06c-.82,0-1.48-.66-1.48-1.48s.66-1.47,1.48-1.47,1.48.66,1.48,1.47-.66,1.48-1.48,1.48"/>
  <path class="cls-1" d="M215.66,242.29c-.82,0-1.48-.66-1.48-1.48s.66-1.47,1.48-1.47,1.47.66,1.47,1.47-.65,1.48-1.47,1.48"/>
  <path class="cls-1" d="M183.71,173.37c.82.69,1.42,1.57,1.79,2.65,1.17,3.36-.08,8.28-.14,8.48l-.73.81-1.08-.17-.78-.63c-1.35-1.14-3.76-3.44-4.63-5.91-1.31-3.74,1.31-6.23,1.42-6.33l.88-.31c.18.02,1.81.17,3.27,1.41M183.48,182.04c.23-1.53.38-3.68-.16-5.26-.24-.67-.61-1.22-1.11-1.64l-1.41-.75c-.43.61-1.03,1.84-.48,3.44.55,1.58,2.07,3.2,3.16,4.21"/>
  <path class="cls-1" d="M329.76,201.98c.61-.88,1.44-1.57,2.47-2.05,3.22-1.5,8.24-.71,8.46-.67l.87.66-.06,1.09-.54.83c-1.02,1.46-3.07,4.08-5.44,5.18-3.6,1.67-6.33-.71-6.44-.81l-.39-.84c0-.18,0-1.8,1.09-3.39M338.42,201.37c-1.55-.08-3.7-.03-5.21.67-.64.3-1.16.72-1.53,1.26l-.6,1.48c.65.37,1.93.84,3.46.14,1.52-.71,2.99-2.37,3.89-3.55"/>
  <path class="cls-1" d="M297.47,233.9l-1.03-.21-.61-.7c-.18-.57-.23-1.76.77-2.63.9-.79,2.38-1.02,2.67-1.05l1.02.38.25,1.06c-.08.28-.48,1.71-1.39,2.51l-1.68.64Z"/>
  <path class="cls-1" d="M239.15,203.09c-1.35-2.3-1.65-5.84-1.7-7.99,1.86,1.09,4.81,3.07,6.17,5.36,1.4,2.37.64,4.51.18,5.41-1.02-.04-3.24-.41-4.64-2.78M250.95,211.93c-2.2-2.02-3.99-3.99-5.01-5.19.69-1.42,1.55-4.28-.32-7.45-2.41-4.08-8.54-7.05-8.8-7.17l-1.09.05-.57.93c-.02.29-.4,7.1,2,11.18,2.15,3.65,5.68,3.94,6.97,3.92,1.05,1.23,2.91,3.3,5.27,5.45l1.36.15.27-.22-.07-1.64Z"/>
  <path class="cls-1" d="M240.85,187.32c-2.74,0-4.96-2.23-4.96-4.97s2.22-4.96,4.96-4.96,4.96,2.23,4.96,4.96-2.22,4.97-4.96,4.97M240.85,179.46c-1.59,0-2.88,1.29-2.88,2.88s1.29,2.88,2.88,2.88,2.88-1.29,2.88-2.88-1.29-2.88-2.88-2.88"/>
  <path class="cls-1" d="M157,234.71c-7.29,0-13.22-5.93-13.22-13.23s5.93-13.23,13.22-13.23,13.22,5.94,13.22,13.23-5.93,13.23-13.22,13.23M157,210.68c-5.96,0-10.8,4.85-10.8,10.81s4.84,10.81,10.8,10.81,10.8-4.85,10.8-10.81-4.84-10.81-10.8-10.81"/>
  <path class="cls-1" d="M169.62,175.89c-1.88,1.66-4.96,3.3-8.91,4.31-.66-.59-1.27-3.92-1.63-5.96-.41-2.31-.8-4.46-1.43-6.05,1.58.16,3.1.27,4.52.38,5.84.43,9.17.79,9.74,3.02.3,1.17-.55,2.77-2.29,4.29M149.82,181.09c-.22-.54-.43-2-.58-3.11-.55-3.91-1.38-9.81-5.84-11.53-4.26-1.64-8.13,1.85-10.97,4.4-1.02.92-2.57,2.31-3.01,2.34-2.35-1.83-4.29-3.83-5.86-5.86,1.38-.54,3.07-1.74,5.29-3.38,1.64-1.22,5.5-4.05,6.25-3.56,2.61,1.72,5.53,3.36,8.82,4.68,3.71,1.48,7.36,2.28,10.76,2.77.93.19,1.73,4.67,2.11,6.82.48,2.72.88,4.73,1.52,6.06-2.57.45-5.43.62-8.5.37M131.48,174.68c.79-.54,1.63-1.29,2.52-2.08,2.51-2.26,5.65-5.08,8.57-3.96,3.18,1.23,3.87,6.11,4.37,9.67.12.93.25,1.78.4,2.5-2.78-.43-5.71-1.18-8.74-2.39-2.66-1.06-5.03-2.34-7.12-3.74M119.11,150.57l.86-.24c1.82-.07,4.56,2.08,7.89,4.71,1.46,1.15,3.05,2.39,4.77,3.64-1.54.73-3.29,2.01-5.17,3.39-1.68,1.24-4.47,3.28-5.36,3.27-2.57-3.9-3.84-7.74-4.07-10.57-.16-2.11.25-3.72,1.07-4.2M174.16,171.03c-1.01-3.96-5.78-4.31-11.82-4.76-5.03-.37-11.28-.84-17.56-3.35-6.42-2.56-11.45-6.53-15.48-9.7-4.8-3.78-8.27-6.5-11.39-4.65-1.66.99-2.45,3.26-2.19,6.39.25,3.17,1.68,7.47,4.56,11.8l-.03.03.19.21c1.91,2.79,4.41,5.59,7.61,8.09h0s.1.07.1.07c2.7,2.08,5.88,3.96,9.59,5.45,5.74,2.29,11.3,3.12,16.28,2.96,7.36-.26,13.48-2.7,17.14-5.9,2.48-2.18,3.54-4.53,3-6.62"/>
  <path class="cls-1" d="M265.2,177.73c-.79,0-1.44.64-1.44,1.44s.65,1.43,1.44,1.43,1.44-.64,1.44-1.43-.65-1.44-1.44-1.44"/>
  <path class="cls-1" d="M271.69,182.85c-.79,0-1.44.64-1.44,1.44s.65,1.43,1.44,1.43,1.44-.64,1.44-1.43-.65-1.44-1.44-1.44"/>
  <path class="cls-1" d="M277.44,180.16c.79,0,1.44-.64,1.44-1.44s-.65-1.43-1.44-1.43-1.44.64-1.44,1.43.65,1.44,1.44,1.44"/>
  <path class="cls-1" d="M278.15,183.7c0,.79.64,1.44,1.44,1.44s1.43-.65,1.43-1.44-.64-1.44-1.43-1.44-1.44.65-1.44,1.44"/>
  <path class="cls-1" d="M289.22,205.34c-.66.79-1.34,1.13-2.03,1.02-1.58-.26-2.02-2.12-2.65-5.4-.67-3.4-1.49-7.63-4.8-10.64,1.96-.37,3.73-1.23,5.31-1.98,1.68-.81,3.27-1.57,4.13-1.21.41.17.78.67,1.1,1.45,2.24,6.57,1.31,13.89-1.05,16.75M269.17,186.57l-.28-.02h-.06s-.16,0-.16,0l-.45.02c-2.89-.07-4.89-2.09-6.83-4.05-1.13-1.15-2.41-2.44-3.85-2.96,3.9-3.38,9.43-5.46,16.72-4.25,7.67,1.28,11.91,5.35,14.27,9.39-1.41.06-2.92.77-4.49,1.53-2.53,1.21-5.39,2.57-8.36,1.62h-.02c-1.1-.44-2.34-.78-3.76-1.02-.98-.16-1.87-.24-2.73-.26M255.96,196.64c-1.23,2.67-1.91,3.91-2.82,3.76-2.37-.45-3.45-3.93-2.64-8.45.55-3.07,2-6.58,4.4-9.61,1.44-1.31,2.27-.77,4.83,1.81,1.12,1.14,2.38,2.41,3.91,3.35-4.35,1.85-6.26,6.02-7.68,9.13M292.63,188.28l-.06-.22-.14-.35-.19-.55c-2.88-7.69-9.12-12.71-17.59-14.13-16.46-2.75-24.83,9.57-26.46,18.51-1.06,5.95.73,10.43,4.52,11.16,2.81.48,4.05-2.23,5.36-5.1,1.75-3.84,3.9-8.47,10.2-8.69h.08l.29-.02c.88,0,1.83.07,2.87.24,8.63,1.45,9.74,7.19,10.73,12.27.66,3.45,1.3,6.7,4.56,7.25l.65.06c1.29,0,2.54-.66,3.56-1.89,2.77-3.36,4.03-11.06,1.62-18.55"/>
</svg>