<?xml version="1.0" encoding="UTF-8"?>
<svg id="Vrstva_1" data-name="Vrstva 1" xmlns="http://www.w3.org/2000/svg" viewBox="0 0 3351.29 2469.76">
  <defs>
    <style>
      .cls-1 {
        fill: #fff;
      }
    </style>
  </defs>
  <path class="cls-1" d="M1036.13,2287.78c193.29-338.59,360.8-412.59,477.77-417.89,291.65-13.21,434.83,393.14,793.13,416.9,207.22,13.75,384.42-107.25,498.54-207.15-104.89-47.41-267.84-134.29-430.66-286.42-145.43-135.89-448.11-418.71-415.05-737.78,22.19-214.18,177.12-265.63,177.2-497.21.05-158.54-72.51-288.91-136.3-376.35-85.84,175.53-194.87,371.62-333.4,577.44-140.97,209.44-284.17,386.89-416.58,534.2,58.04-3.69,239.24-7.83,419.62,111.54,190.84,126.29,256.08,308.31,273.17,361.95-74.03-41.78-388.68-208.31-789.16-116.86-348.67,79.62-548.77,306.02-608.69,379.49,67.43,10.7,168.16,34.84,277.37,94.33,98.48,53.64,168.34,116.67,213.04,163.8Z"/>
</svg>