<?xml version="1.0" encoding="UTF-8"?>
<svg id="Vrstva_1" data-name="Vrstva 1" xmlns="http://www.w3.org/2000/svg" viewBox="0 0 687.53 368.4">
  <defs>
    <style>
      .cls-1 {
        fill: #fff;
      }
    </style>
  </defs>
  <path class="cls-1" d="M266.21,195.26c11.54-15.07.64-6.95,17.18-5.03,16.77-1.65,7.85,7.14,19.91,9.63,13.22,3.14,40.76-5.64,19.06-18.02-3.18-18.5-6.22-40.64,2.08-58.79-2.01-13.61-77.97-6.49-28.06,12.27,2.93,15.83-11.12,4.86-22.21,14.25-8.2,6.76-2.64,12.34-11.73,2.51-17.44-10.44-18.77,23.83-18.86,10.06,1.16-12.95-4.16-29.67,12.99-28.91,5.44-4.82,6.77-20.46-1.26-23.47-9.29-3.1-19.37.41-28.92,0-13.31-4.38-20.42,8.77-15.08,19.7,7.74,4.65,8.21,6.71,7.12,15.92-2.13,43.63-19.23,21.91-17.6,52.38-7.36,1.57-7.88,9.32-11.31,14.67-13.36,15.09-10.52,23.39,10.06,22.62,10.17.15,1.61,6.96,0,12.16-2.18,4.51-7.56,2.48-10.88,5.25-8.6-1.47-19.16,22.55-5.88,21.51-.17.03-.35.04-.53.06,9.96-.17,29.59-2.82,39.3-1.66,10.85,1.47,26.07-6.49,21.08-19.02-6.82-2.95,4.2-15.82,5.1-19.55,36.31-2.12,20.72,7.54,46.51-25.14,9.08-17.8-21.07-7.42-28.07-13.41ZM290.51,165.51c5.51-5.3,8.45,2.88,5.45,7.54-3.82,1.01-6.36-3.85-5.45-7.54Z"/>
  <path class="cls-1" d="M180.31,274.04c.67.13,1.34.08,1.99,0-.71.01-1.39.01-1.99,0Z"/>
  <path class="cls-1" d="M89.84,140.02c-13.09,1.43-21.67.73-28.25,10.68-3.44,8,9.59,12.67,8.31,19.85-19.54,2.16-12.77-29.62-2.06-34.12,11.32-.78,29.34,4.63,35.38-4.45,2.92-14.23-6.77-23.87-13.83-35.62-13.89-.63-30.4-2.8-44-.84-3.86,10.25-9.98,21.25-17.55,29.25,8.42,17.28,4.65,37.84,6.66,56.24,14.54,15.9,26.96,34.26,51.12,18.02,6.1-12.12,26.1-23.01,20.95-36.04-3.75-12.17,5.02-28.81-16.73-22.98Z"/>
  <path class="cls-1" d="M144.27,72.9c-24.27,16.55-14.63,51.33-14.67,76.26-6.51,34.3,30.78,65.55,59.51,38.55,34.44-37,20.67-136.88-44.84-114.82Z"/>
  <path class="cls-1" d="M575.46,115.22c-6.58,6.05-.15,19.65-5.87,28.5-2.27,18.62-18.97,35.07-18.44,52.8,51.92,9.37,107.75,6.1,108.55-62.26-8.28-30.74-59.67-22.3-84.24-19.04ZM618.77,145.49c-2.03,8.67-6.52,19.25-15.66,16.24-1.14-4.06,2.8-16.36,4.19-22.63,5.06-.61,15.06-2.08,11.47,6.38ZM637.04,160.22s0,0,0,0c0,0,0,0,0,0h0Z"/>
  <path class="cls-1" d="M473.39,78.3l.66.11c-.04-.18-.4-.1-.66-.11Z"/>
  <path class="cls-1" d="M539.84,150.84c-2.72-22.28,26.49-36.47,11.74-43.58-9.36-7.04-34.09-1.54-36.46-12.57,2.71-17.38-49.53-18.61-61.6-13.41-14.52,6.02,9.87,18.46,5.02,32.27-.48,8.22,1.85,58.82-4.18,54.9-48.26-22.28-17.91-16.05-1.26-47.35-3.9-12.14-52.95-4.23-60.34,6.28-10.58-15.49-34.01-8.57-50.71-7.12-10.51,1.2-5.27,14.85-5.01,21.99,2.35,16.67-3.54,33.94,1.24,49.67.99,9.74,54.78,4.83,57.41-3.35,1.27-18.62,14.75,3.22,24.31,5.86,11.73,5.99,38.62-15.26,28.91,7.96-11.3,3.23-58.49-9.18-51.96,11.73,9.72,13.46,2.97,68.15,25.98,55.74,8.32,5.13,13.02-3.65,11.32-11.32.04-6.77,3.92-2.32,7.96-4.19,12.46-6.69,11.08,1.77,15.08,10.48,5.23,7.35,27.74,10.41,33.11,2.51,2.93-18.78-18.28-18.68-12.98-47.35-8.39-22.43-21.41-15.47,22.2-19.28,1.94,3.35-4.16,9.38-.42,11.32,13.82-2.6,28.2-.97,42.32-3.77,13.99-5.84-14.55-18.79-1.68-57.41ZM454.77,230.88c-6.46,4.08-21.48-1.92-28.49-.42-9.93-5.3,31.25-6.01,28.49.42ZM466.92,79.36l-.24-.05c.08.03.35-.03.24.05ZM498.35,133.66c2.74-4.52.15-16.54,5.02-18.44,1.78,6.14,1.79,14.49,1.86,23.44-.78,3.55-1.48,6.24-.89,11.77.13,1.26.28,2.12.53,3.5-1.81,8.81.38,18.32.74,27.37-2.01,1.29-4.64,1.17-5.08,1.14,0,0-1.62-.1-3.59-1.07-6.34-14.42,1.41-32.01,1.41-47.72Z"/>
  <path class="cls-1" d="M367.18,223.09c.34,3.38-1,8.93.86,11.35-1.13.89-2.25,4.63-.84,6.08-6.79,9.73,1.63-22.74-5.86-26.4-24.57-10.49-12.7,33.23-15.93,46.09,3.5,10.33,20.44,11.4,29.22,6.8,16.92-2.59,14.13-24.55,13.11-37.39,1.37-17.25-16.33-27.67-20.55-6.53Z"/>
  <path class="cls-1" d="M293.87,217.47c-6.14,16.12-.72,38.44-1.68,55.52-1.23,9.69,5.01,15.26,12.32,20.79,9.41,10.52,25.78,1.99,33.77-6.75,6.67-19.6,1.29-43.34,4.63-64.33-3.4-25.32-38.03-26.2-49.05-5.22ZM319.46,266.17c-7.71,18.24-6.77-9.94-8.42-14.34-.47-7.58,3.46-14.06,3.77-19.69,5.16-8.52,7.7,30.18,4.65,34.03Z"/>
</svg>