<svg xmlns="http://www.w3.org/2000/svg" id="Vrstva_1" data-name="Vrstva 1" viewBox="0 0 1024 1024" width="1024" height="1024"><metadata><rdf:RDF xmlns:rdf="http://www.w3.org/1999/02/22-rdf-syntax-ns#" xmlns:dc="http://purl.org/dc/elements/1.1/"><rdf:Description><dc:creator>RealFaviconGenerator</dc:creator><dc:source>https://realfavicongenerator.net</dc:source></rdf:Description></rdf:RDF></metadata><defs>
    <style>
      .cls-1 {
        fill: #f50;
      }
    </style>
  </defs><path class="cls-1" d="M243.19,954.58c81.25-142.32,151.66-173.43,200.83-175.66,122.59-5.55,182.78,165.25,333.39,175.24,87.1,5.78,161.59-45.08,209.56-87.07-44.09-19.93-112.59-56.45-181.02-120.39-61.13-57.12-188.36-176-174.46-310.12,9.33-90.03,74.45-111.66,74.48-209,.02-66.64-30.48-121.44-57.29-158.2-36.08,73.78-81.91,156.21-140.14,242.72-59.25,88.04-119.45,162.63-175.11,224.55,24.4-1.55,100.56-3.29,176.38,46.89,80.22,53.09,107.64,129.6,114.82,152.14-31.12-17.56-163.38-87.56-331.72-49.12-146.56,33.47-230.67,128.63-255.86,159.52,28.34,4.5,70.68,14.65,116.59,39.65,41.39,22.55,70.76,49.04,89.55,68.85Z"></path></svg>