<?xml version="1.0" encoding="UTF-8"?>
<svg id="Vrstva_1" data-name="Vrstva 1" xmlns="http://www.w3.org/2000/svg" viewBox="0 0 519.7 368.4">
  <defs>
    <style>
      .cls-1 {
        fill: #fff;
      }
    </style>
  </defs>
  <path class="cls-1" d="M351.86,11.05c23.77,2.02,46.73,12.31,63.01,29.99.61.66,1.2,1.32,1.79,2,15.68,18.07,21.6,43.38,20.01,66.86-.06.94-1.08,11.19-1.4,11.15-5.94-.79-11.89-1.89-17.86-2.5-50.33-5.12-107.19-2.02-157.57,3.3s-104,14.02-151.8,30.48c-2.28.79-15.42,6.32-16.43,5.67-16.94-32.08-18.4-73.59,4.64-103.08,15.32-19.6,39.68-31.15,64.33-32.48,25.8-1.39,51.91,8.31,70.93,25.71.19.17.38.35.57.52,1.65,1.54,3.26,3.12,4.82,4.76.82.86,4.52,3.89,4.52,5.03,0,0,8.25,11.78,8.25,11.78.93-1.69,1.45-4.66,2.24-6.16,3.89-7.33,13.8-19.58,19.92-25.48,19.04-18.36,45.82-28.12,72.13-27.92,2.64.02,5.27.14,7.9.37Z"/>
  <path class="cls-1" d="M405.06,210.76c-2.25,5.56-5.6,10.56-8.99,15.47-8.44,12.24-16.15,24.94-24.39,37.31-16.31,24.44-35.38,46.75-54.13,69.31-5.53,6.66-12.14,12.65-18.14,18.89-1.73,1.8-3.49,3.62-5.68,4.82-3.65,2-7.68,1.05-11.37-.32-13.01-4.85-24.34-12.95-36.04-20.23-12.74-7.93-25.25-16.21-37.52-24.83-7.44-5.23-15.04-10.32-22.32-15.77-9.14-6.45-18.16-13.08-26.66-20.37-10.51-9.02-20.09-19.09-29.29-29.43,8.6-2.46,17.97-4.51,26.88-4.36,27.91,26.87,57.82,51.45,88.46,75.13l15.88,11.29-37.08-35.11c-14.74-15.8-30.04-31.17-43.92-47.76-1.36-1.63-3.65-4.09-4.65-5.78-.3-.51-.93-.37-.02-1.1,1.75-1.38,6.36-1.64,8.55-2.18,3.01-.74,6.02-1.47,9.03-2.17,29.94-6.97,60.24-12.33,90.71-16.44,5.89-.79,11.79-1.54,17.69-2.25,30.89-3.72,62.05-5.72,93.16-4.58.93.03,9.65.88,9.82.47Z"/>
  <polygon class="cls-1" points="317.71 174.04 327.06 173.7 321.98 158.43 317.71 174.04"/>
  <path class="cls-1" d="M463.83,211.01c-.69-22.91-4.01-45.77-6.06-68.6-.39-4.34,1.43-8.14-2.48-11.25-2.23-1.78-6.31-3.3-6.31-3.3-14.58-3.69-29.72-5.64-44.76-6.58-57.34-3.59-118.75.52-175.61,8.31-11.42,1.57-22.82,3.29-34.19,5.23-20.83,3.57-41.57,7.92-61.91,13.69-10.04,2.85-19.97,6.04-29.75,9.7-4.79,1.78-9.53,3.7-14.22,5.72-6.16,2.68-12.25,5.69-18.43,8.42-3.68,1.64-7.31,3.63-10.19,6.48-3.07,3.01-4.17,6.61-4.12,10.9.11,7.06,2.11,13.89,3.19,20.81,1.05,6.77,2.27,13.51,3.57,20.23,1.09,5.71,2.25,11.41,3.47,17.1,1.16,5.39,1.83,11.53,3.8,16.68,1.62,4.22,9.19,5.24,13.17,5.5,19.06,1.31,38.76-3.31,57.57-5.61.81-.44,1.21-.55.37-1.26-.78-.67-5.34-3-6.32-3.07-11.13,1.35-22.43,3.09-33.71,3.42h-.04c-8.67-.34-14.76-.9-18.96-1.57-1.21-.2-2.27-.41-3.19-.62-2.79-.65-4.29-1.38-4.98-2.11,2.62-2.09,6.48-3.67,8.63-4.67,16.13-7.47,37.27-12.69,54.61-17.31,69.4-18.48,144.37-27.78,216.17-31.44,28.86-1.47,70.19-3.89,97.89,3.7,1.95.53,4.95,1.29,7.36,2.55-1.47,1.3-3.11,2.59-4.97,3.83,0,0-.02,0-.02,0-1.48.99-3.11,1.75-4.8,2.3-14.84,4.93-30.33,7.53-45.92,9.03l-5.34,6.03c13.93-1.57,28-2.38,41.75-5.19,5.66-1.16,19.77-4.44,23.41-8.7,1.68-1.98,1.38-5.84,1.3-8.36ZM322.29,134.37l13.93-.5-8.39,9.13-9.98.35,4.44-8.98ZM141.39,218.11c-4.16,4.69-9.95,6.61-14.2,7.99l-13.71,4.41-13.36-41.56,13.7-4.41c4.25-1.38,10.08-3.18,16.19-1.79,5.4,1.25,11.13,5.2,14.26,14.92,3.13,9.73.78,16.28-2.88,20.44ZM155.55,158.71l3.43,3.55,1.29-4.77,9.33-2.41-4.09,10.17-11.25,2.91-8.51-6.92,9.78-2.53ZM157.57,216.73l-10.91-42.28,28.56-7.37,2.24,8.66-17.1,4.41,1.98,7.65,14.39-3.72,2.23,8.66-14.39,3.72,2.23,8.65,17.99-4.64,2.23,8.66-29.46,7.61ZM212.9,203.72l-11.83,2.42-6.91-33.8-10.7,2.18-1.83-8.98,33.23-6.79,1.83,8.99-10.7,2.18,6.91,33.79ZM228.96,200.78l-7.02-43.1,11.92-1.94,7.02,43.1-11.92,1.94ZM288.39,193.13l-8.84-14.32-5.09.49,1.44,15.03-11.56,1.1-4.16-43.46,16.76-1.6c3.81-.37,9.25-.89,13.81,1.71,3.95,2.24,5.71,5.93,6.13,10.32.6,6.36-1.95,10.68-6.53,13.34l11.23,16.12-13.18,1.27ZM332.77,190.7l-2.93-8.72-14.39.51-2.42,8.91-10.67.38,13.19-44.15,13.93-.5,16.05,43.12-12.77.45ZM370.03,173.73c-.06,3.72-.13,8.13-2.74,11.69-3.14,4.3-8.51,5.56-13.96,5.47-3.95-.06-6.44-.8-6.44-.8l.14-8.93h.47s2.71.74,4.87.77c1.79.03,3.6-.4,4.55-1.78.95-1.38.98-3,1.01-5.56l.43-27.63,12.07.19-.41,26.59ZM410.16,158.2l-17.61-1.08-.49,7.88,14.83.91-.55,8.92-14.83-.91-.55,8.92,18.54,1.14-.55,8.92-30.36-1.87,2.67-43.58,29.45,1.81-.56,8.92Z"/>
  <path class="cls-1" d="M123.73,191.84c-2.57-.39-4.89.35-6.55.89l-3.09,1,7.96,24.76,3.1-1c1.77-.57,4.26-1.37,6.02-3.28,2.64-2.8,2.9-6.91,1.05-12.66-1.78-5.53-4.38-9.08-8.49-9.71Z"/>
  <path class="cls-1" d="M282.61,159.63c-1.53-.79-3.79-.57-4.71-.48l-5.32.51,1.04,10.86,5.32-.51c1.04-.1,3.24-.31,4.53-1.37,1.08-.92,1.86-2.51,1.65-4.71-.18-1.85-1.04-3.52-2.51-4.31Z"/>
</svg>