<?xml version="1.0" encoding="UTF-8"?>
<svg id="Vrstva_1" data-name="Vrstva 1" xmlns="http://www.w3.org/2000/svg" viewBox="0 0 687.53 595.28">
  <defs>
    <style>
      .cls-1, .cls-2 {
        fill: #fff;
      }

      .cls-2 {
        fill-rule: evenodd;
      }
    </style>
  </defs>
  <path class="cls-1" d="M157.39,217.17c0-102.89,83.23-186.23,185.8-186.23s185.8,83.34,185.8,186.23-83.23,186.23-185.8,186.23-185.8-83.34-185.8-186.23M169.15,217.17c0,97.12,78.32,175.87,175.01,175.87s175.01-78.74,175.01-175.87S440.85,41.31,344.16,41.31c-96.7.11-175.01,78.85-175.01,175.87"/>
  <path class="cls-1" d="M343.2,404.24c-102.91,0-186.64-83.92-186.64-187.07S240.28,30.11,343.2,30.11s186.64,83.92,186.64,187.06-83.72,187.07-186.64,187.07ZM343.2,31.77c-101.99,0-184.97,83.17-184.97,185.4s82.98,185.4,184.97,185.4,184.97-83.17,184.97-185.4S445.19,31.77,343.2,31.77ZM344.16,393.87c-96.96,0-175.85-79.27-175.85-176.7S247.2,40.58,344.16,40.47c96.96,0,175.85,79.27,175.85,176.7s-78.88,176.7-175.85,176.7ZM344.16,42.14c-96.04.11-174.18,78.63-174.18,175.03s78.14,175.03,174.18,175.03,174.18-78.52,174.18-175.03S440.2,42.14,344.16,42.14Z"/>
  <polygon class="cls-1" points="331.55 53.49 333.79 53.38 339.46 89.81 337.85 89.81 331.55 53.49"/>
  <path class="cls-1" d="M339.84,90.14h-2.26l-6.41-36.96,2.91-.14,5.77,37.1ZM338.13,89.49h.95l-5.56-35.77-1.58.07,6.19,35.69Z"/>
  <polygon class="cls-1" points="342.66 52.84 345.01 52.84 344.69 89.81 343.09 89.81 342.66 52.84"/>
  <path class="cls-1" d="M345.02,90.14h-2.25l-.43-37.62h3.01l-.33,37.62ZM343.41,89.49h.96l.31-36.31h-1.69l.42,36.31Z"/>
  <polygon class="cls-1" points="318.94 54.87 321.29 54.55 335.5 95.8 335.5 99.96 318.94 54.87"/>
  <path class="cls-1" d="M335.2,100.08l-16.7-45.47,3.02-.41,14.31,41.6v4.17l-.63.11ZM319.39,55.14l15.79,42.98v-2.28l-14.11-40.94-1.68.23Z"/>
  <polygon class="cls-1" points="306.01 57.44 308.26 56.8 335.5 105.52 335.5 108.08 306.01 57.44"/>
  <path class="cls-1" d="M335.83,109.29l-30.31-52.05,2.9-.83,27.41,49.02v3.86ZM306.51,57.64l28.67,49.24v-1.27l-27.08-48.42-1.59.45Z"/>
  <polygon class="cls-1" points="292.66 61.18 294.9 60.54 335.5 110.43 335.5 112.25 292.66 61.18"/>
  <path class="cls-1" d="M335.83,113.15l-43.74-52.14,2.93-.84.14.17,40.67,49.99v2.83ZM293.23,61.35l41.95,50v-.8l-40.39-49.64-1.55.44Z"/>
  <polygon class="cls-1" points="278.23 66.63 280.37 65.67 335.5 113.53 335.5 114.28 334.54 114.28 278.23 66.63"/>
  <path class="cls-1" d="M335.83,114.61h-1.41l-.09-.08-56.7-47.99,2.8-1.26.16.14,55.24,47.96v1.22ZM334.66,113.95h.52v-.27l-54.86-47.63-1.47.66,55.82,47.24Z"/>
  <polygon class="cls-1" points="262.42 74.64 264.34 73.47 332.83 114.28 330.48 114.28 262.42 74.64"/>
  <path class="cls-1" d="M334.02,114.61h-3.62l-.08-.04-68.53-39.91,2.56-1.56,69.68,41.52ZM330.57,113.95h1.08l-67.3-40.11-1.29.79,67.51,39.32Z"/>
  <polygon class="cls-1" points="245.43 85.86 247.36 84.26 326.21 114.28 322.68 114.28 245.43 85.86"/>
  <path class="cls-1" d="M326.21,114.61l-3.64-.02-77.78-28.62,2.5-2.09,79.03,30.09-.12.63ZM322.74,113.95h1.69l-77.02-29.32-1.34,1.12,76.66,28.2Z"/>
  <polygon class="cls-1" points="323.86 230.64 322.04 230.64 335.5 161.83 335.5 168.77 323.86 230.64"/>
  <path class="cls-1" d="M324.13,230.96h-2.48l13.54-69.2.65.06v6.95l-11.7,62.19ZM322.44,230.31h1.15l11.6-61.6v-3.53s-12.75,65.13-12.75,65.13Z"/>
  <polygon class="cls-1" points="344.69 232.13 342.98 232.13 343.09 180.95 344.48 180.95 344.69 232.13"/>
  <path class="cls-1" d="M345.02,232.46h-2.37v-.33s.11-51.5.11-51.5h2.04v.33s.22,51.51.22,51.51ZM343.31,231.8h1.05l-.21-50.53h-.74l-.11,50.53Z"/>
  <polygon class="cls-1" points="363.07 231.49 361.25 231.81 351.96 174.86 351.96 166.53 363.07 231.49"/>
  <path class="cls-1" d="M360.99,232.19l-.05-.33-9.3-56.95v-8.39s.64-.05.64-.05l11.17,65.28-2.46.43ZM352.28,170.37v4.49l9.24,56.57,1.17-.21-10.41-60.85Z"/>
  <polygon class="cls-1" points="442.35 85.86 444.27 87.46 366.49 114.28 362.75 114.28 442.35 85.86"/>
  <path class="cls-1" d="M366.54,114.61h-3.79l-.11-.63,79.77-28.48,2.51,2.09-78.38,27.02ZM364.63,113.95h1.8l77.19-26.61-1.34-1.11-77.65,27.72Z"/>
  <polygon class="cls-1" points="425.47 74.75 427.28 76.14 358.05 114.28 355.7 114.28 425.47 74.75"/>
  <path class="cls-1" d="M358.13,114.61h-2.43l-.16-.61,69.96-39.64,2.38,1.82-69.75,38.43ZM356.94,113.95h1.03l68.72-37.86-1.25-.95-68.51,38.81Z"/>
  <polygon class="cls-1" points="409.12 66.63 411.36 67.59 353.56 114.28 351.96 114.28 351.96 114.07 409.12 66.63"/>
  <path class="cls-1" d="M353.68,114.61h-2.04v-.69l.12-.1,57.32-47.57,2.92,1.25-.42.34-57.89,46.76ZM352.6,113.95h.84l57.29-46.28-1.56-.67-56.57,46.95Z"/>
  <polygon class="cls-1" points="394.7 60.96 396.83 61.71 351.96 112.89 351.96 111.08 394.7 60.96"/>
  <path class="cls-1" d="M351.63,113.76v-2.8l.08-.09,42.88-50.28,2.8.98-45.77,52.2ZM352.28,111.2v.83l43.98-50.16-1.47-.51-42.51,49.85Z"/>
  <polygon class="cls-1" points="380.81 57.01 383.16 57.55 351.96 108.83 351.96 106.48 380.81 57.01"/>
  <path class="cls-1" d="M351.63,110v-3.6l.04-.08,28.97-49.68,3.03.69-.24.39-31.8,52.28ZM352.28,106.57v1.1l30.36-49.9-1.67-.38-28.68,49.19Z"/>
  <polygon class="cls-1" points="367.66 54.55 369.91 54.87 351.96 101.46 351.96 97.61 367.66 54.55"/>
  <path class="cls-1" d="M352.26,101.58l-.63-.12.02-3.96,15.8-43.31,2.91.42-18.1,46.97ZM352.28,97.67v2.03l17.17-44.56-1.58-.23-15.6,42.76Z"/>
  <polygon class="cls-1" points="355.27 53.27 357.51 53.38 350.46 89.81 348.86 89.81 355.27 53.27"/>
  <path class="cls-1" d="M350.73,90.14h-2.26l6.53-37.21,2.91.14-7.17,37.07ZM349.25,89.49h.95l6.93-35.8-1.58-.08-6.29,35.87Z"/>
  <path class="cls-1" d="M229.73,128.81s1.39,3.85,5.13,5.24c3.85,1.5,8.33.53,8.33.53,0,0-2.78,2.56-4.7,5.45-1.92,2.88-5.02,9.08-5.45,11.22-.53,2.14-2.99,13.14-4.27,13.14l-2.46-.53c-.64-.43.53-6.09,1.82-9.72,1.28-3.53,1.71-8.12,1.82-10.26.11-2.14-.96-5.02-1.07-9.51,0-1.5.85-5.56.85-5.56"/>
  <path class="cls-1" d="M209.85,152.96s1.6-.21,1.82,1.07c.21,1.28-.11,2.88.85,6.73.96,3.95,2.99,6.73,4.81,7.8,1.82,1.07,5.34,1.71,6.41,1.71.96,0,.96,1.18,1.28,5.88.43,4.7,1.18,9.08,2.14,11.75.96,2.67,3.53,8.87,4.7,10.9,1.07,2.03,3.63,4.49,4.81,5.45,1.07.96,1.5,1.92,1.6,2.88l1.28,6.2-1.28.43-5.24-3.1c-.75-.96-4.38-7.16-4.91-8.97-.64-1.82-3.63-8.33-3.95-10.26s-1.92-8.01-2.46-9.83c-.53-1.82-.11-1.18-3.1-4.06-2.99-2.88-5.98-5.13-6.73-7.48-.85-2.35-2.03-3.95-2.14-6.84-.32-2.99.11-10.26.11-10.26"/>
  <path class="cls-1" d="M242.33,185.76s.75-.21.96,2.67c.32,2.88.75,6.84,2.35,12.5,1.6,5.66,4.81,12.82,5.98,14.53,1.18,1.71,2.88,3.63,4.91,4.59,2.14.96,2.56,1.07,4.06,1.28,1.5.21,2.03-.11,2.88,1.6.96,1.71,2.14,4.06,2.14,4.06l1.07,1.6h-4.27c-1.6,0-5.24-.75-8.65-2.35-3.31-1.6-8.33-4.91-10.36-12.29-2.03-7.27-2.56-8.12-2.78-12.07-.21-3.95-.21-7.69,0-9.4.43-1.5,1.71-6.73,1.71-6.73"/>
  <path class="cls-1" d="M262.1,193.13s2.56.53,2.88,1.71,1.82,6.52,1.92,9.72c.11,3.21,1.07,6.41,3.53,11.01,2.46,4.7,5.98,9.72,8.55,11.43,2.56,1.71,6.73,3.63,8.12,3.85,1.39.21,3.1.43,3.1.43l2.03,7.37s-4.17.11-8.44-1.39c-4.27-1.5-10.47-5.88-12.29-8.76-1.82-2.88-5.98-8.76-6.62-12.82-.64-4.06-1.18-8.44-1.5-11.97-.21-3.63-1.28-10.58-1.28-10.58"/>
  <path class="cls-1" d="M291.8,207.98s2.14-.53,2.56,1.6,1.07,6.84,1.82,10.26c.75,3.31,3.21,10.58,4.81,13.04,1.5,2.46,6.52,6.73,7.91,7.59,1.39.85,5.66,2.67,7.16,2.88,1.5.21,3.85-.43,3.85-.43,0,0,1.28,0,.75,1.6-.64,1.6-2.67,4.49-3.42,5.24-.85.85-3.74,4.17-5.13,4.06-1.39-.11-1.82-.96-4.27-2.78-2.46-1.82-8.33-7.27-9.83-10.04-1.5-2.78-3.95-8.33-4.38-12.07-.43-3.74-.53-7.37-.64-9.94-.21-2.46-1.18-11.01-1.18-11.01"/>
  <path class="cls-2" d="M370.34,286.41l-1.71,1.07-5.98.32s-2.46,2.99-3.42,4.91c-.96,1.92-1.28,3.85-1.28,3.85l-1.82-.21s-.43-5.24-.11-6.3c.21-.43.64-1.92,1.28-3.63h13.04ZM350.68,286.41l-.64.85-.96.96,1.28,2.99-1.82.75-.21,1.5,1.28,2.03.32,1.5s-.53.96-1.71.32c-1.18-.75-2.24-.96-2.46-1.71l-.43-5.34s-.11-2.14-.11-3.74h5.45v-.11ZM342.56,286.41v.75c-.11,5.77-1.6,9.51-2.35,9.83l-2.78-1.6,1.28-2.35-.64-1.28-.21-3.1c.43-.96,1.92-1.82.64-1.92l-1.18-.21h5.24v-.11Z"/>
  <path class="cls-2" d="M340.2,280c.96-.32,1.5-.75,2.24-1.82.75-1.07,1.6-2.67,1.5-3.42-.11-.85-.32-1.5-1.82.21-1.5,1.71-2.35,2.67-2.67,3.63l-.64,2.03,1.39-.64M339.99,271.24l2.46-.75c.53-.75,2.14-2.67.85-2.46s-1.92-.43-2.46.43l-.85,2.78M363.92,279.04c1.07,0,1.92.11,2.56-.75.64-.85,1.82-2.14.75-2.03-1.07.11-1.92.11-2.46.85-.53.64-1.92,1.92-.85,1.92M337.32,286.41l-.85-.32s-1.39-3.1-1.28-4.91c.11-1.82-.85-9.3-.85-9.3l-1.07-.43-.53,1.28-.85,1.71s-.64-1.6-.96-3.31c-.43-1.71-1.28-5.13-1.5-5.56l-.85-1.92-1.5.53s-.32-.32-.43,1.28.43,2.88-.75,1.6c-1.07-1.18-2.88-3.85-2.88-3.85,0,0-.53-2.03-2.03-1.71-1.5.32-1.82,1.92-1.82,1.92l-1.28.96c-.43.11-.21.43-1.5-.11-1.28-.53-1.82-.32-1.18-2.14.64-1.82-.11-2.56,2.24-4.91,2.35-2.46,6.84-6.3,7.37-7.16l2.46-4.27,2.99-2.35,1.82.43s-.32,1.5-1.39,2.46c-1.07.96-1.71,2.03-1.28,2.67l1.28,1.07c.75-.53,2.46-2.35,3.1-3.53.64-1.07,1.92-4.17,2.35-4.27l1.18-.11-.21,2.78-.53,2.03,2.14-.64,1.5-3.21.21-.96,11.43-.43,6.3.11s3.63,1.39,4.91,2.35c1.28.96,4.27,4.38,5.45,6.2,1.18,1.82,4.38,7.27,4.81,8.12l.53,4.38c.11.64.11,2.35.75,3.85.64,1.5,3.42,4.17,3.95,4.91.53.85.64,1.82.32,3.21-.32,1.39-.75,4.06-.75,4.06,0,0-1.39.75-2.88.96s-.64,1.28-.64,1.28c0,0-1.28,1.5-1.82,2.67l-2.56,2.35h-12.82c.75-2.24,1.71-4.81,2.24-5.88.85-1.82,3.31-6.84,4.91-7.8,1.71-.85,3.42-1.82,5.45-.21,2.03,1.6,2.46,3.53,2.46,3.53l.75.11-.32-4.38-2.03-4.06-1.07-2.99-1.39-.64-2.03.11-.85.64.64-1.6s.11-.64-.96-.64c-1.07.11-1.5-.21-1.92.64l-1.6,3.42-1.39,2.24-2.03-.53-1.07-.53-.85.64-.43,3.42-.53,1.71s0,1.6-.11,2.99c-.11,1.5-.32,2.88-.75,3.74-.43.85-1.71.96-2.56,2.78-.53,1.18-.96,2.46-1.39,3.31h-5.56l-.11-1.92c0-.85.85-3.95-.53-3.42-1.28.53-1.82.32-2.03,5.34h-5.02v.21Z"/>
  <path class="cls-1" d="M377.81,252.65s6.62-5.24,8.55-7.37,6.73-7.91,7.48-14.32c.85-6.41,2.03-17.31,1.82-18.38-.21-1.07.53-7.59.53-7.59l-1.5-.11-1.18,4.27c-.21.96-1.92,10.15-2.67,13.14s-2.35,8.76-3.85,10.79c-1.5,2.03-8.23,7.05-9.51,7.69-1.28.64-3.74.96-4.49.96s-2.46-.53-2.46.75c0,1.18,2.99,4.17,3.53,5.13l3.74,5.02h0Z"/>
  <path class="cls-1" d="M394.48,240.68s9.94-5.02,13.78-6.94c3.85-1.92,10.47-5.56,12.39-9.72,1.92-4.17,3.42-14,4.06-17.84.64-3.85.96-11.97.96-11.97h-.96c-.53.75-2.88,9.72-3.42,12.18-.53,2.46-3.53,11.01-4.38,12.39-.85,1.28-2.56,4.7-5.98,6.73s-9.4,4.59-9.4,4.59l-2.88,1.28c-.11.64-1.18,4.06-1.92,5.34-.75,1.18-2.24,3.95-2.24,3.95"/>
  <path class="cls-1" d="M422.05,228.82s13.78-5.98,16.88-8.76c3.1-2.88,7.16-10.04,7.8-12.93.64-2.88.53-8.01.64-9.62s-.43-6.41-.53-7.05l-.64-2.03c-.85.53-1.5,1.07-1.6,2.35-.11,1.18,0,8.01-.96,11.11s-1.92,8.33-3.53,10.47-4.06,4.91-6.3,6.3c-2.24,1.28-5.24,1.82-6.2,2.03l-1.6.85-1.82,3.63-2.14,3.63"/>
  <path class="cls-1" d="M451.11,208.73s5.98-4.59,7.37-7.37c1.39-2.88,4.06-7.91,4.59-10.15.53-2.24,2.56-8.23,2.56-8.97,0-.85.75-3.63,1.71-4.91.96-1.28,3.85-5.66,5.13-6.84,1.28-1.18,2.24-3.1,2.46-3.53l.32-1.82-1.71-.21c-.53.43-2.03,2.46-3.1,3.21-1.07.85-2.88,2.46-3.85,2.88l-2.78.96-1.92-.21c-.85.85-.32,1.07-.32,2.56,0,1.39.11,8.65-.21,10.04-.32,1.39-1.82,6.41-2.88,8.55-.96,2.14-2.99,4.81-3.74,5.98-.75,1.07-2.67,2.35-2.67,2.35l-.96,7.48Z"/>
  <path class="cls-1" d="M458.38,162.04l2.88-.64c.32-.96-.64-4.38-.85-5.77-.21-1.39-1.6-8.65-1.82-10.9-.21-2.35-.43-6.41-.21-7.59.21-1.18-.11-5.77.11-6.52l-.32-4.81-1.82-2.14-.43,6.2c-.32.75-1.5,2.88-2.35,4.06-.85,1.18-3.1,2.67-3.95,2.67l-3.53-.53-.75,1.07c.85.85,4.91,4.91,5.88,6.52.96,1.5,2.78,5.98,3.31,7.59.64,1.6,2.35,6.73,2.35,6.73l1.5,4.06Z"/>
  <path class="cls-2" d="M381.02,282.78l-.43-.11s0-1.82.11-3.1c.11-1.39.32-.75.53-.96l.21-2.03.85-1.5,1.28-.75c.64-.64,2.99-5.45,5.02-8.23,1.92-2.78,5.66-6.73,7.8-8.55,2.14-1.71,8.12-5.45,8.12-5.45l7.05-2.88,3.1-.11.53.43.32.75-.43.64-.21,1.6-3.74,2.14-1.92.85v.75l2.67.11-.32,1.92c-.43.21-2.78,1.28-4.49,2.14-1.18.53-2.24.85-2.99,1.28l-1.5,1.39.43.64.75.32.64-.53h1.82l.43,1.18-2.35,1.6-6.09,2.24v1.28l2.78.21.75,1.28-.75.64-3.53,2.03-4.7,1.5-.53.85h1.39l.32,1.18-1.6,2.14c-.53.43-1.5.64-2.88,1.28-1.18.96-6.2,2.03-8.44,1.82M394.38,266.21c1.07,0,1.6.21,2.46-.53l2.35-2.99,2.14-2.14.85-1.07-.96-.96-1.07.43-1.39,1.18-1.5,1.6-1.39,1.39-1.39,1.18c-.43.53-1.18,1.92-.11,1.92"/>
  <path class="cls-1" d="M393.09,282.78c1.07.11,4.17-.75,5.56-1.5,1.39-.75,7.91-5.02,9.4-6.52,1.39-1.5,3.63-3.95,3.85-4.49.43-1.28.21-2.14.21-2.14l-.64-.43v-.85l4.27-2.35.53-2.24-.64-.43.53-1.39,2.24-.75,1.82-2.78-.43-.53c-1.39.32-2.03.21-2.03-.32l.21-1.18,4.06-2.35c.75-1.39.32-4.06,0-4.06h-.43l-1.18.85-2.99,4.38-2.88,5.24-4.27,6.94-4.06,5.45-4.91,4.59c-.21.21-2.56,2.78-3.74,3.31-1.18.53-3.74,1.5-3.95,1.71l-.75,1.28.21.53"/>
  <path class="cls-1" d="M366.7,299.23s3.95-2.88,5.24-4.49c1.28-1.6,2.56-3.74,2.67-4.59s.32-2.88-1.71-1.39c-2.03,1.6-3.85,2.24-4.38,2.67l-1.18,2.03-1.28,4.49.64,1.28Z"/>
  <path class="cls-1" d="M321.61,292.28s-1.07.96-2.24.53c-1.18-.43-4.59-2.88-5.13-3.74l-1.6-2.88c-.43.32-.96,1.6-.75,2.88.32,1.39.75,4.17,2.14,5.34,1.39,1.07,2.24,2.99,3.95,2.78,1.6-.21,3.31-1.18,3.53-1.6l.11-3.31"/>
  <path class="cls-2" d="M328.88,294.21h-.21l-.96-1.5s-.32-1.39-.96-2.56c-.64-1.07-1.6-2.35-1.6-2.35,0,0-3.85.11-5.24-.32-1.39-.32-2.35-1.6-3.53-2.35-1.18-.75-1.82-2.24-2.03-2.78l-.43-2.99-.85.43-1.92.96-.32,6.84-2.24,5.24-2.03-.21-5.13-1.92-2.56-.96c-1.07-.21-.11-1.82-.11-1.82l.96-.11h1.39v-.75l-2.67-2.24-1.39-.75-2.35-1.39-.64-.43-2.99-.32-.96-1.28-.96-.53-1.71-.32-.85-.75v-.53l.32-.43.43-.21,2.88-.11-.53-.85-1.6-1.28h-3.63l-2.35-.85-1.07-.64-1.6-.75.11-1.28.43-.85,1.92.21,1.82.53v-1.18l-1.5-1.07-.85-.53-2.35-.21-.96-.64-1.92-.64-.85-.75-.21-1.5h.96l1.39.11h1.39l-.11-.75-2.78-1.6-4.17-2.03-.75-1.07v-1.07l.43-.21.53-.21.85.11,1.07.53,1.39-.11-.11-.53-1.07-1.28s-2.03-1.28-3.42-2.35c-1.28-1.07-2.03-1.18-2.35-2.03l.32-2.35,3.95.11c.96,0,3.21,1.18,5.13,2.24,1.92.96,5.77,4.06,8.44,5.98,2.67,2.03,5.77,5.77,7.91,6.94,2.14,1.18,3.31,2.03,3.31,2.03l.21-2.56-1.6-1.82c-.53-.53-2.67-3.1-4.38-4.59-1.71-1.39-3.74-1.82-4.49-3.1-.64-1.18.11-2.24.96-2.24s3.1,1.6,7.59,4.27c4.49,2.67,13.14,11.22,13.68,11.65s1.18.43,2.67.53l.11.64-.32,3.31.85.43,1.71.85,1.6-1.39c.75-.53,1.28-1.07,2.99-1.82,1.71-.75,1.6-.53,3.74-.11,2.14.32,3.42,2.99,3.74,3.85l2.99,7.16c.21.96,1.6,7.27,1.71,8.55-.11.96-1.18,2.46-2.24,2.67M291.27,273.8s1.5,1.6,3.1,1.82c1.6.21,3.1-.43,3.63-.11l1.5.96,1.5-1.28s-.96-.75-2.14-.85c-1.07-.11-2.56-.32-3.21-.96l-5.34-4.7-2.03-2.56-1.71-1.28-1.82.96,1.71,2.46,2.56,3.42,2.24,2.14ZM320.65,278.61l.96.64,1.39-1.39-.11-.85-.75-.64-1.18-.11-.53-.53-.96.11-.85.75.11,1.28.96.64.96.11"/>
  <path class="cls-1" d="M296.5,370.64c-1.47-.4-4.11-1.9-3.58-4.68.55-2.87,3.14-14.27,3.53-15.95.52-1.77,4.44-17.94,5.34-21.9.73-3.65,2.56-12.19,3.55-15.14.78-2.64,1.55-8.16,1.78-11.66.17-2.66-.01-7.36-.08-8.96l-8.55-2.81-3.14-.28c-1.19-.26-11.02-4.17-13.35-5.44-2.31-1.37-9.29-6.66-11.66-9.37-.24-.25-6.56-6.86-8.62-15.85-.99-4.63-1.75-6.33-2.3-7.57-.54-1.21-.92-2.08-1.14-4.5-.03-.41.06-1.02.61-1.65,1.18-1.33,3.8-2.04,5.28-2.13,1.88-.12,5.59.22,8.63.76l.7.1c2.62.39,5.34.79,7.04,1.19,1.35.32,4.63,1.64,7.27,2.71,1.07.43,2.02.81,2.67,1.06,1.39.62,3.83,2,5.98,3.21,1.28.72,2.39,1.35,2.96,1.63,1.81.84,6.38,5.15,6.89,5.76l2.58,2.67c.4-.21.89-.6,1.17-1.05.11-.18.23-.45.18-.68-.19-.54-1.88-1.91-5.03-4.07-.4-.27-.7-.48-.87-.61-.78-.59-7.96-7.17-8.93-8.51-.79-.98-2.31-2.05-3.05-2.13-1.01-.1-8.83-1.49-10.36-2.08-1.44-.6-11.32-5.97-11.42-6.03-1.07-.58-11.31-3.55-12.81-3.87-1.17-.15-7.46-1.1-10.21-3.61-1.65-1.51-3.85-3.89-5.45-5.63-.83-.9-1.52-1.65-1.95-2.08-.51-.47-1.55-1.17-2.65-1.91-1.42-.96-3.04-2.04-4.36-3.18-2.06-1.78-6.35-5.84-7.77-8.45-1.12-2.05-3.04-7.17-3.96-9.63l-.36-.94c-.19-.53-.71-1.58-1.26-2.7-1.03-2.07-2.19-4.43-2.41-5.68-.11-.61-.15-1.37-.19-2.16-.06-1.24-.15-2.93-.62-3.36-.22-.2-.69-.59-1.29-1.1-3.33-2.79-6.63-5.63-7.32-6.92-.93-1.75-2.22-5.13-2.65-7.39-.33-2.28-.98-8.21-.98-9.34,0-.46-.04-2.04-.09-3.84-.06-2.36-.13-5.07-.13-6.1.06-1.11-.2-4.55-.39-7.07-.14-1.79-.25-3.2-.25-3.73,0-2.98.43-4.82,1.29-5.46,1.36-.91,3.51-.5,4.73.85.75.84,1.59,2.67,2.45,4.63.19.44.35.8.45,1,.46.92,3.04,7.7,3.7,10.43.39,1.63.48,4.42.55,6.67.04,1.18.08,2.66.17,2.95l2.28,3.6c.09.15.19.32.29.5.18.32.56,1,.76,1.1.52-.69,1.67-4.09,2.49-7.05.03-.1,2.44-8.09,2.64-10.64.14-1.82-.73-4.86-1.25-6.68-.28-.97-.42-1.49-.46-1.82-.12-1.04.42-8.45,1.1-10.59.19-.57.46-1.51.78-2.64.8-2.79,1.88-6.62,2.89-8.79.7-1.46,1.42-3.11,2.05-4.55.65-1.5,1.16-2.68,1.5-3.29.07-.11,2.49-3.38,4.51-3.08.4.06,1.13.33,1.47,1.41.9,2.97-.17,10.76-.18,10.83-.13.91-.62,1.92-1.05,2.82-.22.46-.53,1.09-.55,1.29.06.31-.08.83-.39,1.96-.3,1.1-.87,3.14-.62,3.79.48,1.26,2.28,2.51,2.74,2.4.15-.05.35-.09.57-.12.91-.14,2.6-.41,5.9-6.13l5-8.54c1.54-2.63,2.57-4.39,2.67-4.57l.15-.2c3.38-3.75,5.88-5.55,7.6-5.36.32.01.67.02,1,.02,1.4.02,2.6.03,3.08.94.43.82-.09,1.79-.59,2.55l-.65,1.04c-1.74,2.76-5.36,8.52-5.99,10.32-.67,2.01-2.88,8.25-4.13,10.31-1.15,1.88-6.21,9.11-6.8,9.82l-4.75,5.49c-.47.97-4.26,8.86-4.85,10.23-.33.77-.85,2.77-1.35,4.7-.42,1.61-.85,3.28-1.19,4.31-.12.37-.25.71-.38,1.06-.67,1.77-1.37,3.59-1.28,10,0,7.06.78,10.44,1.24,11.83l1.72,5.91.42.97c.1-1.63.23-3.36.59-4.42.22-.7.55-2.64.88-4.51.46-2.65.89-5.15,1.28-6.11.52-1.18,1.25-3.86,1.79-5.82.22-.82.41-1.51.54-1.92.42-1.48,2.34-8.63,2.34-8.63l1.94-5.71,1.7-6.26c.14-.43.85-2.38,2.11-2.71.51-.13,1.03,0,1.47.4,1.14,1.03,1.52,3.11,1.77,4.48l.08.45c.13.65.01,2.44-.19,5.31-.13,1.88-.27,3.83-.22,4.52,0,.15,0,9.85-.82,11.61-.42,1.09-1.35,5.35-1.86,7.94-.21,1.06-.05,3.07.05,4.27.04.51.07.91.07,1.12l1.06,8.66c.91,2.95,3.56,11.31,4.48,12.82,1.32,2.16,3.74,5.15,4.38,5.42l.96.25c0-.1,0-.23-.01-.39,0-1.47-.52-4.59-.53-4.63l-.76-8.72c-.11-1-.86-11.19-.86-12.57s-.63-10.96-.64-11.06l-1.01-5.36.18-.28c.69-1.03,3.19-1.87,4.75-.88,1.32.84,3.89,4.4,4.27,5.28l4.07,10.83,2.07,14.49,3.07,9.48c.45.87,4.33,7.94,5.46,9.08,1.36,1.36,4.85,4.18,5.41,4.42l2.26,1.09c.02-.34.05-.88.08-1.29l.05-.61c.08-.9-.47-13.85-.86-22.33l-2.12-11-.13-3.16.05-.14c.21-.64.72-1.77,1.71-2.18.39-.16,1.02-.28,1.78.11,1.32.66,3.72,2.8,4.04,3.78.07.22.66,1.42,1.22,2.58,1.05,2.17,2.36,4.88,2.83,6.16.91,2.16,2.68,10.89,3.03,12.62.2,1.01.29,2.32.37,3.58.1,1.43.19,2.92.46,3.7.5,1.61,3.57,7.98,3.99,8.72l5.29,7.3c.36.31,4.14,2.26,5.24,2.58,1.02.31,2.91.72,3.91.83.37,0,.61-.21.92-.48.17-.14.34-.29.56-.4l.23-.13c.64-.36,1.84-1.04,2.99-.92.2.02.44.03.71.04,1.33.07,3.16.16,4.24,1.12.87.78,2.03,1.07,2.55,1.07l4.92-.63h11.11s9.16.85,9.16.85c.23-.04,1.6-.34,2.92-.64,1.77-.39,3.61-.8,4.3-.86.05,0,5.43-.34,6.86.25l2.96.76c1.22-.58,4.09-2.1,5.57-3.21,1.48-1.11,3.91-5.43,4.88-7.5.82-1.74,3.59-9.93,4.33-12.99.72-2.62,2.43-11.55,3.08-14.91l.23-1.2c.11-1.14,1.76-6.08,4.75-9.95,2.91-3.78,5.38-5.73,5.49-5.81l.29-.14c.36-.1.94-.07,1.4.31.5.43.7,1.16.59,2.17-.12,1.08-.77,3.47-1.4,5.78-.47,1.74-1.01,3.72-1.06,4.25,0,.49-.15,2.13-.33,4.03-.2,2.14-.5,5.37-.44,5.87.15.24.17,1.11-.11,6.04l-.08,1.45c-.11,2.12-.54,6.56-.65,7.34l-.08,4.59c.11-.03.24-.06.36-.09.35-.08.78-.19,1.33-.29,1.48-.3,9.47-4.65,10.17-5.55.74-.92,3.75-9.07,4.69-12.26.64-2.16,2.37-10.42,3.3-14.85.31-1.46.54-2.58.64-3.04.35-1.56,1.9-7.22,2.56-8.27l4.74-6.36c.34-.37,1.32-1.32,2.3-1.11.28.06.8.28,1.05,1.02.34,1.37.54,11.12.58,13.06-.02.21-.86,4.53-.96,7.73,0,3.19-.82,10.24-.86,10.54-.61,2.54-1.46,6.57-1.39,7.65.03.48,0,.91-.07,1.28l2.21-1.1c.47-.35,5.23-5.49,6.24-7.92,1.02-2.45,2.3-8.9,2.51-10.28.18-1.16-1.22-13.37-1.7-15.51-.21-1.26-1.01-4.14-1.53-6.04-.5-1.81-.51-1.87-.51-2.04,0,0-.06-.28-.13-.7-1.12-6.43-1.47-9.84-1.12-11.06.12-.58.26-1.52.42-2.52.53-3.48.83-5.07,1.39-5.64.38-.38,2.07-1.72,3.39-1.26.36.12.97.49,1.1,1.53.2,1.74,3.16,10.05,3.64,10.92.32.71,1.73,4.75,3.27,9.18.52,1.48.92,2.65,1.05,3.01.43,1.18,2.18,7.06,2.26,7.31.15,2.34.51,8.16.76,9.24.13.82.44,2.01.67,2.83.74-1.61,2.25-5.8,3.53-9.64.47-1.14,1.46-10.24,1.35-11.42-.03-.66-1.22-4.33-2.1-7-.89-2.73-1.81-5.55-2.16-6.98-.96-3.35-3.33-9.42-4.32-10.25-1.25-.94-6.2-4.92-8.12-6.52-2.04-1.8-5.28-8.92-5.73-11.49-.24-1.93-2.1-6.95-4.97-13.49-.82-1.77-1.9-3.52-2.84-5.06-1.55-2.52-2.57-4.18-2.21-5.34l.05-.24c.28-1.27.76-3.39,3.17-3.11,1.76.21,5.77,1.27,7.51,2.88,1.11,1.03,2.9,4.1,4.62,7.16.43.76.77,1.36.96,1.66.75,1.18,3.57,6.7,4.03,7.96.11.29.24.78.4,1.36.34,1.27,1.15,4.26,1.94,4.74.29.18.56.37.83.55,1.13.77,1.68,1.07,2.22.81.68-.37,1.15-1.89,1.15-3.76-.06-.96-1.16-4.5-1.96-7.09-.64-2.07-1.04-3.36-1.13-3.89-.2-1.07-1.08-8.04-1.08-9.43s.96-5.7,1.65-6.67l2.32-2.45,2.08-.16.11.11.24-.09c.17.45,4.2,11.1,4.95,14.54.61,2.38,1.76,4.72,2.67,6.6.31.63.58,1.2.8,1.68,1.03,2.06,1.67,5.07,1.67,6.31,0,.53.18,2.51.34,4.25.19,2,.3,3.25.3,3.66,0,.38-.12,1.63-.33,3.8-.23,2.38-.52,5.35-.52,6.24,0,.33-.02.81-.04,1.38-.07,1.95-.21,5.58.4,6.94.82,1.85,2.34,7.74,2.58,8.67.5.83,1.33,1.69,1.75,1.6.08-.01.83-.23,1.38-3.24.85-4.32,1.28-7.7,1.66-10.69.29-2.25.53-4.2.9-6.1.83-4.24,1.81-7.75,2.64-9.4.25-.45.49-.91.73-1.37.91-1.75,1.46-2.75,2.2-2.99.49-.16,2.19-.46,3.45.31.69.42,1.12,1.1,1.25,1.95.22,2.17-.08,9.83-.32,11.26-.2,1.1-.52,9.97-.52,12.58,0,3.01-.64,8.28-.65,8.33-.12.94-1.65,6.43-3.23,8.79-1.46,2.19-5.25,7.39-5.94,8.2-.53.7-.82,1.49-1.54,4.17-.65,2.41-2.75,8.53-3.47,9.39-.12.17-.36.98-.55,1.63-.33,1.13-.71,2.42-1.3,3.4-.43.72-.5,1.35-.58,2.16-.07.73-.16,1.55-.54,2.53-.91,1.94-4.32,6.46-6.37,7.95-.85.61-1.54.97-2.14,1.28-.81.42-1.4.73-2.12,1.5-.4.46-1.18,1.33-2.08,2.32-1.66,1.83-4.16,4.59-4.55,5.24-.38.77-1.77,1.84-3.84,3.37-.77.57-1.5,1.11-1.99,1.53-1.64,1.41-5.58,3.45-7.74,4.21-1.11.39-3.49,1.47-5.58,2.42-2.18.99-3.55,1.6-4.07,1.76-.23.07-.58.14-1.01.23-1.5.3-4.28.87-5.3,2.25-1.31,1.78-2.88,1.7-4.02,1.66-.39-.02-.76-.03-1.03.04-.31.08-.72.16-1.2.25-1.42.27-3.58.68-5.35,1.61-1.05.59-1.69.88-2.28,1.15-.76.34-1.41.64-2.89,1.59-3.15,2.01-9.69,6.25-11.93,7.88-.54.39-1.19.8-1.9,1.23-2.29,1.41-5.13,3.16-6.03,5.95-.98,3.02-.98,3.03-.95,3.52.01.17.02.39.02.71.05.66.16,2.17.4,2.42l.08.08c.09-.06.22-.16.39-.32,1.3-1.2,3.59-4.63,3.99-5.43.51-1.01,3.92-4.72,5.54-6.13.32-.26.66-.6,1.05-1,1.91-1.9,5.1-5.09,12.09-6.97l2.86-.77c5.41-1.47,5.51-1.5,8.68-1.5h1.77c3-.02,5.59-.03,7.28.34.38.08.77.14,1.17.21,1.63.26,3.85.61,3.85,2.83,0,1.77-.64,3.93-1.11,5.51l-.2.69c-.39,1.35-2.35,8.16-3.16,9.67-.74,1.2-4.31,6.5-5.83,8.76l-.62.92c-.53.8-6.16,6.82-7.52,7.97-.47.37-1.22,1-2.08,1.73-1.88,1.59-4.22,3.58-5.51,4.33-1.85,1.09-8.72,3.79-10.81,4.26-1.97.42-4.66.98-6.48.98-.98,0-4.11-.39-5.85-1.47l-.15,3.34c.87.53,2.53,1.69,2.65,2.9.12,1.17.11,4.55-.11,6.07l-.14.66c-.31,1.45-.73,3.45-.32,4.75.38,1.52,1.83,4.76,2.38,5.98l.15.34c.23.52,1.41,3.3,1.78,6.87.11,1.07.26,2.1.4,3.05.27,1.86.5,3.46.35,4.61-.08.62-.3,1.21-.51,1.77-.4,1.06-.74,1.97-.29,3.04.53,1.26,1.13,1.96,1.67,2.58.29.33.54.63.73.93.74.99,2.78,6.38,3.1,7.85.14.67.63,2.55,1.16,4.64.67,2.61,1.42,5.53,1.72,6.9.49,2.35,1.19,6.61,1.19,8.19,0,4.41-.81,4.81-1.2,5l-2.64,1.48-.8-1.43,2.67-1.5c.08-.16.33-1.31.33-3.56,0-1.29-.62-5.28-1.16-7.85-.29-1.34-1.04-4.25-1.7-6.83-.55-2.12-1.04-4.03-1.18-4.7-.31-1.45-2.31-6.55-2.85-7.27-.19-.3-.39-.53-.62-.79-.55-.64-1.31-1.52-1.94-3.01-.7-1.66-.16-3.09.27-4.24.19-.5.37-.98.42-1.42.12-.93-.09-2.43-.34-4.16-.14-.98-.29-2.03-.41-3.12-.34-3.33-1.43-5.89-1.64-6.38l-.15-.34c-.62-1.37-2.06-4.59-2.46-6.21-.52-1.66-.05-3.89.29-5.52l.13-.61c.19-1.35.2-4.57.09-5.64-.04-.22-.48-.66-1.07-1.11l-.09.89-1.63-.11.41-9.22c0-.2.01-.33.02-.38l1.62.17v.24c0,.22.04.68.28,1.39.26.63,3.5,1.58,5.42,1.58,1.65,0,4.24-.55,6.14-.94,1.89-.42,8.65-3.09,10.33-4.07,1.17-.69,3.54-2.7,5.28-4.17.89-.75,1.66-1.4,2.11-1.75,1.28-1.09,6.78-7,7.19-7.61l.62-.93c1.52-2.26,5.08-7.54,5.77-8.66.59-1.1,2.23-6.57,3.01-9.3l.21-.71c.44-1.49,1.04-3.52,1.04-5.05,0-.71-.62-.93-2.47-1.22-.43-.07-.86-.14-1.27-.23-1.51-.33-4.14-.32-6.91-.31h-1.78q-2.95,0-8.25,1.45l-2.86.78c-6.57,1.77-9.57,4.76-11.36,6.55-.45.45-.82.82-1.16,1.09-1.6,1.38-4.78,4.92-5.13,5.61-.42.85-2.83,4.5-4.34,5.9-.29.27-1.17,1.07-2.08.78-.42-.13-.67-.45-.8-.76-.51-.65-.62-1.73-.73-3.35,0-.33-.01-.52-.02-.67-.05-.82-.01-.94,1.02-4.13,1.09-3.36,4.22-5.28,6.73-6.83.67-.41,1.29-.79,1.79-1.16,2.27-1.65,8.84-5.91,12.01-7.93,1.58-1.01,2.32-1.35,3.1-1.7.56-.25,1.16-.53,2.17-1.1,2.01-1.05,4.31-1.49,5.83-1.78.44-.08.82-.15,1.11-.23.5-.12,1-.1,1.5-.08,1.03.05,1.85.08,2.64-1,1.39-1.88,4.45-2.51,6.28-2.88.37-.08.68-.14.87-.19.44-.13,2.18-.92,3.86-1.68,2.13-.96,4.54-2.06,5.72-2.47,1.98-.69,5.77-2.67,7.22-3.91.51-.44,1.28-1.01,2.08-1.6,1.24-.92,3.12-2.31,3.38-2.84.47-.79,2.36-2.89,4.77-5.55.88-.97,1.66-1.83,2.07-2.31.93-1,1.73-1.42,2.58-1.86.58-.3,1.19-.62,1.94-1.16,1.81-1.31,5.05-5.61,5.83-7.27.28-.72.34-1.36.41-2.05.09-.89.18-1.8.8-2.83.48-.8.83-1.98,1.13-3.02.28-.96.51-1.72.82-2.17.47-.64,2.4-5.9,3.19-8.82.74-2.74,1.09-3.76,1.85-4.77.63-.73,4.35-5.84,5.85-8.08,1.41-2.12,2.87-7.35,2.97-8.09.13-1.07.64-5.6.64-8.13s.32-11.59.55-12.86c.2-1.18.52-8.66.31-10.78-.05-.33-.21-.59-.49-.76-.64-.39-1.73-.27-2.08-.15-.21.17-.87,1.44-1.27,2.2-.25.48-.5.96-.74,1.39-.73,1.46-1.68,4.9-2.47,8.94-.36,1.85-.61,3.77-.89,5.99-.38,3.01-.82,6.42-1.68,10.78-.33,1.8-.97,4.25-2.71,4.55-1.8.31-3.23-2.01-3.5-2.48l-.08-.21c-.02-.07-1.7-6.69-2.52-8.52-.7-1.57-.65-4.65-.54-7.66.02-.55.04-1,.04-1.32,0-.97.28-3.85.53-6.4.16-1.63.32-3.32.32-3.64,0-.37-.15-2.03-.29-3.51-.18-1.95-.35-3.8-.35-4.4,0-1.03-.6-3.79-1.52-5.62-.23-.51-.49-1.05-.79-1.67-.9-1.84-2.13-4.37-2.79-6.94-.52-2.35-2.7-8.42-3.96-11.86l-.09.03c-.21-.7-.36-1.14-.46-1.4l-.52.04-1.81,1.91c-.31.45-1.27,4.37-1.27,5.63s.84,7.94,1.06,9.15c.08.46.56,2.02,1.08,3.69,1.11,3.58,1.97,6.4,2.03,7.52,0,1.28-.2,4.25-2.03,5.25-1.48.74-2.76-.13-3.9-.9-.25-.17-.51-.35-.77-.51-1.23-.76-1.96-3.13-2.66-5.71-.14-.53-.26-.96-.35-1.23-.39-1.08-3.11-6.44-3.87-7.64-.19-.3-.55-.93-1-1.73-1.15-2.03-3.29-5.82-4.32-6.77-1.27-1.18-4.75-2.24-6.59-2.46-.8-.1-1.02.2-1.39,1.85l-.07.31c-.12.57,1.12,2.59,2.03,4.06.97,1.58,2.07,3.37,2.94,5.24,1.41,3.22,4.72,10.99,5.09,13.92.42,2.38,3.59,9.09,5.18,10.49,1.89,1.58,6.8,5.53,8.07,6.48,1.59,1.32,4.14,8.48,4.89,11.11.34,1.4,1.25,4.19,2.13,6.89,1.51,4.63,2.17,6.74,2.17,7.44.12,1.23-.87,10.66-1.45,12.07-.98,2.94-3.38,9.99-4.24,10.84l-.24.24h-1.69l-.18-.58c-.03-.1-.77-2.53-.99-3.96-.31-1.36-.71-8.45-.76-9.27h0s-1.79-5.9-2.2-7.03c-.13-.36-.54-1.54-1.06-3.03-1.09-3.12-2.91-8.35-3.19-8.99-.54-.97-3.58-9.52-3.8-11.45-.02-.16-.05-.21-.05-.21-.21-.04-1.16.41-1.66.9-.28.43-.69,3.12-.94,4.73-.16,1.04-.31,2.01-.45,2.66-.19.7-.14,3.02,1.15,10.4.1.57.15.93.15.98.02.05.21.72.46,1.61.54,1.94,1.35,4.86,1.56,6.16.4,1.8,1.96,14.45,1.71,16.07-.18,1.18-1.49,7.95-2.62,10.66-1.14,2.75-6.07,8.09-6.9,8.68l-3.89,1.86c-.48,0-.74-.25-.85-.39-.33-.43-.2-.91-.07-1.37.11-.41.25-.93.21-1.56-.11-1.68,1.25-7.4,1.41-8.05h0s.83-7.16.83-10.28c.11-3.37.94-7.67.98-7.85-.09-4.01-.28-10.77-.49-12.26-.18.11-.42.31-.57.47l-4.64,6.24c-.37.6-1.82,5.46-2.31,7.7-.1.46-.33,1.57-.64,3.02-1,4.77-2.67,12.76-3.33,14.98-.76,2.56-3.93,11.51-4.95,12.78-.95,1.36-9.6,5.85-11.16,6.17-.53.1-.94.2-1.27.27-.84.2-1.46.35-2.06-.1l-.33-.25.12-5.87c.12-.86.54-5.21.64-7.29l.08-1.46c.1-1.75.28-5,.18-5.52-.14-.35-.12-1.16.38-6.46.16-1.7.33-3.47.33-3.95.06-.71.46-2.21,1.11-4.61.58-2.14,1.24-4.57,1.35-5.53.03-.28.02-.46,0-.58-.76.66-2.69,2.43-4.85,5.23-2.77,3.6-4.34,8.27-4.43,9.2l-.24,1.26c-.65,3.38-2.37,12.35-3.1,15.01-.77,3.17-3.56,11.43-4.43,13.27-.62,1.33-3.37,6.6-5.38,8.11-1.77,1.33-5.16,3.07-6.14,3.51l-.26.12-3.79-1.01c-.61-.26-4.58-.24-6.04-.11-.59.05-2.54.48-4.1.83-1.49.33-2.78.61-3.26.67l-9.25-.85h-10.93s-4.92.64-4.92.64c-.79.06-2.44-.3-3.75-1.48-.64-.58-2.2-.65-3.23-.71-.3-.02-.58-.03-.8-.05-.65-.07-1.58.46-2.03.72l-.3.16s-.14.11-.22.18c-.38.33-1.01.87-2.07.87-1.22-.12-3.18-.55-4.29-.89-1.09-.33-5.33-2.41-6-3.09l-5.43-7.47c-.46-.79-3.61-7.29-4.18-9.1-.32-.97-.42-2.48-.53-4.09-.08-1.21-.16-2.45-.35-3.36-.76-3.78-2.23-10.64-2.94-12.34-.46-1.23-1.8-4.01-2.78-6.04-.81-1.67-1.2-2.49-1.3-2.78-.2-.44-2.08-2.27-3.22-2.84-.26-.13-.38-.08-.43-.06-.25.1-.54.51-.74,1.06l.1,2.73,2.12,10.99c.11,2.29.97,21.36.87,22.66l-.04.59c-.1,1.4-.18,2.61-1.11,2.98l-.33.13-3.21-1.55c-.93-.39-4.72-3.59-5.89-4.75-1.46-1.45-5.56-9.1-5.82-9.61l-3.15-9.73-2.06-14.45-4.02-10.62c-.26-.6-2.63-3.88-3.63-4.51-.64-.41-1.81-.06-2.31.24l.88,4.69c.04.49.65,9.86.65,11.26s.76,11.58.85,12.41l.75,8.67c.01.07.54,3.23.54,4.77.07.93-.09,1.56-.51,1.93-.25.22-.59.32-.9.26l-1.65-.44c-1.59-.53-4.77-5.28-5.29-6.13-1.19-1.95-4.33-12.17-4.68-13.33l-1.1-8.9c0-.29-.04-.64-.07-1.09-.11-1.37-.28-3.44-.02-4.73.05-.27,1.32-6.59,1.96-8.25.45-.99.69-7.08.69-10.93-.05-.75.08-2.66.23-4.69.13-1.86.31-4.41.22-4.87l-.09-.48c-.19-1.02-.53-2.91-1.26-3.56-.18.05-.67.8-.92,1.57l-1.7,6.26-1.94,5.71s-1.91,7.12-2.34,8.62c-.13.41-.31,1.09-.53,1.88-.55,2.01-1.3,4.75-1.86,6.02-.31.78-.77,3.43-1.17,5.76-.36,2.1-.68,3.92-.93,4.73-.33,1-.45,2.92-.55,4.61-.05.85-.1,1.65-.17,2.29-.06.51-.15,1.37-.94,1.43-.79.02-.97-.67-1.22-1.68-.08-.34-.17-.7-.25-.9l-.96-2.24-1.74-5.97c-.49-1.45-1.31-5.03-1.31-12.3-.09-6.71.7-8.77,1.39-10.59.12-.33.25-.65.36-.99.33-.98.75-2.62,1.16-4.21.54-2.09,1.05-4.05,1.43-4.94.64-1.5,4.75-10.03,4.93-10.4l.12-.18,4.81-5.56c.46-.55,5.48-7.7,6.65-9.61,1.09-1.78,3.15-7.5,3.98-9.98.64-1.83,3.51-6.46,6.15-10.66l.66-1.05c.49-.74.49-.98.49-.99-.11.04-.99.03-1.63.02-.35,0-.72,0-1.09-.03-.88-.08-2.93,1.12-6.16,4.71l-.08.08c-.19.34-.85,1.47-2.66,4.54l-5,8.53c-3.4,5.9-5.43,6.67-7.06,6.92-.13.02-.24.03-.33.06-1.66.51-4.14-1.75-4.76-3.37-.41-1.06,0-2.73.57-4.81.15-.54.34-1.21.34-1.4-.08-.47.18-1.05.7-2.12.36-.75.81-1.68.91-2.34.35-2.42.86-8.08.24-10.12-.05-.15-.12-.27-.16-.28-.57-.11-2.15,1.28-2.88,2.33-.25.47-.78,1.69-1.39,3.09-.63,1.46-1.37,3.14-2.07,4.6-.95,2.04-2.02,5.8-2.8,8.54-.33,1.16-.6,2.12-.8,2.69-.6,1.91-1.13,9.03-1.03,9.91.02.21.22.89.41,1.55.58,2.05,1.47,5.14,1.31,7.26-.22,2.73-2.6,10.63-2.7,10.97-.29,1.05-1.81,6.42-2.85,7.57-.54.6-1.08.68-1.44.63-.96-.11-1.52-1.11-1.96-1.92-.09-.16-.17-.31-.25-.43l-2.35-3.74c-.24-.53-.28-1.36-.35-3.63-.07-2.17-.15-4.87-.5-6.33-.62-2.57-3.14-9.22-3.57-10.08-.11-.22-.28-.6-.48-1.07-.54-1.22-1.53-3.49-2.17-4.2-.73-.81-2-1-2.57-.62-.21.18-.6,1.48-.6,4.13,0,.47.12,1.99.24,3.6.22,2.85.47,6.07.4,7.24,0,.98.07,3.67.13,6.01.05,1.81.09,3.41.09,3.88,0,.97.62,6.78.95,9.07.39,2.04,1.62,5.28,2.48,6.89.6,1.12,5.04,4.85,6.93,6.44.62.52,1.11.93,1.34,1.14.98.88,1.07,2.71,1.16,4.49.04.71.07,1.4.17,1.96.18,1.02,1.39,3.46,2.27,5.24.6,1.21,1.11,2.25,1.33,2.86l.35.93c.84,2.24,2.81,7.47,3.87,9.42,1.22,2.23,5.09,6.01,7.4,8,1.24,1.07,2.81,2.13,4.2,3.06,1.2.81,2.24,1.51,2.87,2.08.46.46,1.18,1.24,2.02,2.16,1.58,1.72,3.75,4.07,5.35,5.53,2.44,2.23,8.68,3.12,9.39,3.21,1.54.33,12.04,3.35,13.32,4.05,2.15,1.17,10.12,5.48,11.25,5.95,1.25.48,8.78,1.86,9.92,1.97,1.47.15,3.37,1.73,4.19,2.76.81,1.11,7.84,7.61,8.61,8.19.15.11.44.31.81.56,3.39,2.33,5.41,3.89,5.69,5.02.15.62.03,1.29-.37,1.93-.56.91-1.68,1.74-2.59,1.95l-.45.1-3.31-3.43c-.51-.61-4.93-4.7-6.38-5.38-.6-.3-1.74-.94-3.05-1.68-2.02-1.14-4.53-2.55-5.81-3.12-.61-.23-1.58-.62-2.65-1.06-2.45-.99-5.8-2.34-7.03-2.63-1.63-.38-4.31-.78-6.9-1.16l-.72-.11c-2.96-.53-6.51-.84-8.27-.74-1.37.08-3.41.74-4.15,1.58-.15.17-.22.31-.21.44.19,2.14.5,2.83,1,3.97.58,1.31,1.38,3.1,2.4,7.88,1.95,8.52,8.17,15.03,8.23,15.1,2.13,2.43,8.84,7.62,11.26,9.05,2.32,1.26,11.94,5.06,12.8,5.25l3.21.3,9.79,3.2.03.56c.01.26.32,6.39.11,9.71-.23,3.56-1,9.18-1.85,12.04-.97,2.9-2.78,11.35-3.51,14.99-.8,3.51-4.81,20.11-5.36,21.97-.37,1.58-2.97,13.06-3.51,15.84-.38,2,2.29,2.77,2.41,2.8l-.43,1.57ZM379.46,265.18v.02s0-.01,0-.02ZM259.54,215.73h0Z"/>
  <polygon class="cls-1" points="259.75 121.44 260.07 119.84 311.46 120.58 311.46 121.87 259.75 121.44"/>
  <path class="cls-1" d="M311.79,122.2h-.33s-52.11-.43-52.11-.43l.45-2.26h.27s51.71.76,51.71.76v1.93ZM260.15,121.12l50.99.42v-.63l-50.8-.74-.19.95Z"/>
  <polygon class="cls-1" points="222.46 118.98 212.1 118.98 210.71 121.12 222.14 121.12 222.46 118.98"/>
  <path class="cls-1" d="M222.42,121.45h-12.31l1.81-2.79h10.92l-.42,2.79ZM211.31,120.79h10.55l.22-1.48h-9.81l-.96,1.48Z"/>
  <polygon class="cls-1" points="267.12 108.19 267.34 106.59 311.57 114.92 311.57 116.2 267.12 108.19"/>
  <path class="cls-1" d="M311.9,116.59l-45.14-8.14.3-2.25,44.84,8.45v1.94ZM267.49,107.93l43.76,7.89v-.62l-43.63-8.22-.13.95Z"/>
  <polygon class="cls-1" points="254.41 103.92 229.51 99.32 227.8 101.03 253.02 105.41 254.41 103.92"/>
  <path class="cls-1" d="M253.14,105.76l-.17-.03-25.84-4.49,2.28-2.28.17.03,25.48,4.7-1.91,2.06ZM228.48,100.82l24.42,4.24.86-.93-24.14-4.45-1.14,1.14Z"/>
  <polygon class="cls-1" points="250.78 138.21 251.74 136.18 311.57 126.35 311.57 127.64 250.78 138.21"/>
  <path class="cls-1" d="M250.21,138.64l1.3-2.75.17-.03,60.21-9.89v1.94l-61.69,10.73ZM251.96,136.48l-.62,1.31,59.9-10.42v-.62l-59.29,9.74Z"/>
  <polygon class="cls-1" points="200.77 144.62 195.96 145.59 194.9 147.94 201.2 146.76 200.77 144.62"/>
  <path class="cls-1" d="M194.34,148.37l1.4-3.07,5.29-1.06.56,2.78-7.25,1.35ZM196.19,145.87l-.74,1.63,5.36-1-.3-1.49-4.32.87Z"/>
  <polygon class="cls-1" points="255.37 154.56 255.37 152.74 321.51 129.03 325.03 129.03 255.37 154.56"/>
  <path class="cls-1" d="M255.04,155.03v-2.51l.22-.08,66.25-23.74h3.53l.11.63-70.1,25.7ZM255.7,152.97v1.12l67.5-24.74h-1.63l-65.87,23.62Z"/>
  <polygon class="cls-1" points="203.12 171.76 184.1 178.71 183.57 181.17 203.44 173.47 203.12 171.76"/>
  <path class="cls-1" d="M183.12,181.69l.7-3.22.17-.06,19.38-7.08.44,2.35-.25.1-20.44,7.91ZM184.38,178.95l-.37,1.69,19.05-7.38-.2-1.06-18.49,6.75Z"/>
  <polygon class="cls-1" points="262.21 168.66 260.61 167.92 329.41 129.13 331.66 129.13 262.21 168.66"/>
  <path class="cls-1" d="M262.22,169.03l-2.33-1.09.55-.31,68.88-38.83h2.33l.16.61-69.6,39.62ZM261.32,167.89l.87.41,68.23-38.84h-.93l-68.18,38.43Z"/>
  <polygon class="cls-1" points="179.51 213.43 179.4 216 215.94 194.63 215.41 193.13 179.51 213.43"/>
  <path class="cls-1" d="M179.05,216.58l.14-3.34.16-.09,36.24-20.49.76,2.12-.23.14-37.06,21.67ZM179.83,213.63l-.07,1.79,35.79-20.93-.31-.88-35.4,20.02Z"/>
  <polygon class="cls-1" points="333.69 129.03 335.4 129.03 271.08 181.59 270.43 179.99 333.69 129.03"/>
  <path class="cls-1" d="M270.94,182.13l-.9-2.24.19-.15,63.34-51.04h2.74l-65.37,53.43ZM270.83,180.09l.39.97,63.27-51.71h-.68l-62.97,50.74Z"/>
  <polygon class="cls-1" points="227.16 215.46 182.93 250.94 183.36 253.39 228.02 216.53 227.16 215.46"/>
  <path class="cls-1" d="M183.13,254l-.56-3.2.15-.12,44.49-35.68,1.26,1.57-.25.21-45.09,37.22ZM183.28,251.07l.3,1.71,43.98-36.3-.45-.56-43.83,35.15Z"/>
  <polygon class="cls-1" points="291.38 183.09 290.09 182.45 335.5 130.41 335.5 132.02 291.38 183.09"/>
  <path class="cls-1" d="M291.46,183.49l-1.89-.94.28-.32,45.98-52.69v2.59l-44.37,51.36ZM290.62,182.34l.68.34,43.88-50.79v-.61l-44.56,51.06Z"/>
  <polygon class="cls-1" points="246.72 232.88 196.6 290.79 197.67 292.82 247.89 233.63 246.72 232.88"/>
  <path class="cls-1" d="M197.61,293.4l-1.4-2.65.15-.17,50.29-58.12,1.73,1.1-.24.29-50.53,59.56ZM197,290.83l.74,1.41,49.66-58.54-.62-.4-49.78,57.53Z"/>
  <polygon class="cls-1" points="275.03 201.89 282.51 193.24 281.87 191.74 274.07 200.83 275.03 201.89"/>
  <path class="cls-1" d="M275.03,202.39l-1.4-1.56,8.33-9.7.93,2.16-7.85,9.09ZM274.5,200.82l.52.58,7.1-8.22-.35-.83-7.27,8.47Z"/>
  <polygon class="cls-1" points="259.75 264.08 222.03 327.76 223.53 329.47 260.61 265.15 259.75 264.08"/>
  <path class="cls-1" d="M223.58,330.03l-1.95-2.23.12-.2,37.96-64.09,1.29,1.61-37.41,64.91ZM222.44,327.72l1.04,1.19,36.74-63.73-.42-.53-37.36,63.07Z"/>
  <polygon class="cls-1" points="300.24 197.73 299.07 196.34 335.5 134.69 335.5 136.93 300.24 197.73"/>
  <path class="cls-1" d="M300.29,198.29l-1.62-1.92.12-.2,37.04-62.68v3.53l-35.54,61.27ZM299.47,196.3l.73.86,34.98-60.32v-.96l-35.71,60.42Z"/>
  <polygon class="cls-1" points="306.66 223.26 305.59 221.55 335.5 142.27 335.5 145.48 306.66 223.26"/>
  <path class="cls-1" d="M306.73,224l-1.51-2.41,29.97-79.43.63.12-.02,3.32-29.08,78.4ZM305.95,221.52l.63,1.01,28.6-77.11v-1.36l-29.23,77.45Z"/>
  <polygon class="cls-1" points="280.8 286.94 254.84 355.32 256.87 356.61 281.97 287.8 280.8 286.94"/>
  <path class="cls-1" d="M257.03,357.1l-2.6-1.64.09-.25,26.12-68.78,1.72,1.25-25.33,69.42ZM255.24,355.19l1.46.93,24.89-68.2-.63-.46-25.72,67.73Z"/>
  <polygon class="cls-1" points="380.59 222.62 379.42 224.54 352.06 146.44 352.06 142.92 380.59 222.62"/>
  <path class="cls-1" d="M379.34,225.3l-27.6-78.86v-3.53l.63-.11,28.58,79.85-1.62,2.64ZM352.39,146.38l27.11,77.4.74-1.2-27.84-77.79v1.59Z"/>
  <polygon class="cls-1" points="402.28 289.61 426.96 359.06 428.89 357.89 404.1 288.44 402.28 289.61"/>
  <path class="cls-1" d="M426.79,359.55l-24.9-70.07,2.38-1.54,25.02,70.09-2.49,1.52ZM402.68,289.75l24.46,68.83,1.35-.83-24.56-68.81-1.25.81Z"/>
  <polygon class="cls-1" points="387.96 198.26 387 199.65 351.96 137.25 351.96 135.01 387.96 198.26"/>
  <path class="cls-1" d="M386.97,200.27l-35.34-62.93v-2.33l.61-.16,36.11,63.43-1.38,1.99ZM352.28,137.17l34.75,61.87.55-.79-35.3-62v.92Z"/>
  <polygon class="cls-1" points="424.83 266.64 461.47 332.03 462.86 330.43 425.47 264.51 424.83 266.64"/>
  <path class="cls-1" d="M461.42,332.6l-.23-.41-36.72-65.51.9-3,37.89,66.79-1.84,2.13ZM425.18,266.6l36.35,64.86.93-1.08-36.9-65.06-.38,1.27Z"/>
  <polygon class="cls-1" points="395.23 183.2 393.73 183.94 352.06 132.44 352.06 130.73 395.23 183.2"/>
  <path class="cls-1" d="M393.65,184.35l-41.91-51.79v-2.73l44,53.48-2.1,1.05ZM352.39,132.33l41.43,51.21.9-.45-42.33-51.44v.68Z"/>
  <polygon class="cls-1" points="434.02 233.52 487.01 298.27 488.19 296.24 435.72 232.56 434.02 233.52"/>
  <path class="cls-1" d="M487.06,298.84l-.3-.37-53.24-65.05,2.29-1.29.17.21,52.61,63.85-1.53,2.63ZM434.51,233.61l52.45,64.08.83-1.42-52.14-63.29-1.13.64Z"/>
  <polygon class="cls-1" points="412.86 204.56 404.42 194.2 403.78 196.23 411.58 205.85 412.86 204.56"/>
  <path class="cls-1" d="M411.55,206.33l-8.14-10.03.88-2.78,9.01,11.06-1.75,1.75ZM404.14,196.16l7.46,9.2.82-.82-7.87-9.67-.41,1.29Z"/>
  <polygon class="cls-1" points="454.32 217.81 502.82 259.8 503.46 257.67 455.7 216.75 454.32 217.81"/>
  <path class="cls-1" d="M502.99,260.38l-49.19-42.58,1.92-1.47.2.17,47.92,41.06-.85,2.82ZM454.83,217.83l47.82,41.4.44-1.45-47.4-40.61-.86.66Z"/>
  <polygon class="cls-1" points="417.24 183.3 416.49 185.12 351.96 129.35 351.96 129.03 353.45 129.03 417.24 183.3"/>
  <path class="cls-1" d="M416.62,185.66l-64.99-56.17v-.8h1.94l64.06,54.51-1.01,2.45ZM352.46,129.35l63.9,55.22.49-1.18-63.51-54.05h-.87Z"/>
  <polygon class="cls-1" points="426.22 169.63 424.51 170.37 355.38 129.03 357.62 129.03 426.22 169.63"/>
  <path class="cls-1" d="M424.48,170.74l-70.29-42.04h3.51l.08.05,69.14,40.93-2.45,1.07ZM356.56,129.35l67.97,40.66.97-.43-67.97-40.23h-.97Z"/>
  <polygon class="cls-1" points="468.74 196.87 508.38 220.59 508.17 218.13 469.06 194.95 468.74 196.87"/>
  <path class="cls-1" d="M508.76,221.2l-.55-.33-39.83-23.83.44-2.61,39.66,23.51.28,3.26ZM469.1,196.71l38.9,23.28-.14-1.65-38.55-22.86-.21,1.23Z"/>
  <polygon class="cls-1" points="430.81 153.6 430.38 155.2 362.11 129.03 365.31 129.03 430.81 153.6"/>
  <path class="cls-1" d="M430.6,155.64l-.34-.13-68.27-26.18.12-.63,3.32.02,65.77,24.68-.6,2.24ZM363.87,129.35l66.29,25.42.26-.97-65.16-24.45h-1.38Z"/>
  <polygon class="cls-1" points="479.32 173.79 504.85 183.73 504.21 181.17 479.96 172.08 479.32 173.79"/>
  <path class="cls-1" d="M505.32,184.26l-26.42-10.28.87-2.32,24.72,9.26.84,3.34ZM479.74,173.61l24.65,9.59-.45-1.79-23.79-8.91-.41,1.1Z"/>
  <polygon class="cls-1" points="434.87 137.89 435.19 139.82 375.68 128.28 375.68 126.89 434.87 137.89"/>
  <path class="cls-1" d="M435.59,140.23l-.46-.09-59.78-11.59v-2.05l.39.07,59.42,11.05.44,2.61ZM376,128.01l58.79,11.4-.21-1.23-58.58-10.89v.73Z"/>
  <polygon class="cls-1" points="484.87 149.22 494.38 151.14 493.31 148.9 484.87 147.3 484.87 149.22"/>
  <path class="cls-1" d="M494.96,151.59l-10.41-2.11v-2.58l8.99,1.71,1.42,2.98ZM485.2,148.95l8.61,1.74-.72-1.5-7.89-1.5v1.26Z"/>
  <polygon class="cls-1" points="427.6 121.44 428.25 123.26 375.68 122.51 375.68 121.23 427.6 121.44"/>
  <path class="cls-1" d="M428.71,123.59l-53.36-.76v-1.93l52.48.22.87,2.48ZM376,122.19l51.78.74-.41-1.16-51.37-.21v.63Z"/>
  <polygon class="cls-1" points="466.39 123.68 479.21 123.9 477.61 121.87 466.6 121.87 466.39 123.68"/>
  <path class="cls-1" d="M479.89,124.23l-13.87-.23.29-2.46h11.45l2.13,2.69ZM466.76,123.36l11.77.2-1.08-1.37h-10.56l-.14,1.17Z"/>
  <polygon class="cls-1" points="421.19 107.87 421.73 109.9 375.68 117.06 375.68 115.67 421.19 107.87"/>
  <path class="cls-1" d="M375.35,117.44v-2.04l.27-.05,45.81-7.85.7,2.67-46.78,7.27ZM376,115.94v.73l45.32-7.04-.37-1.39-44.95,7.7Z"/>
  <path class="cls-2" d="M315.2,377.44c-.11,1.39-.21,2.67-.21,3.53,0,1.92,1.82,1.71,2.88,1.5.64-.11.96-2.88,1.07-5.02h2.88l.11,7.16,2.99-.11s.85-5.88.96-6.94h2.88c-.11,1.07-.11,2.24-.11,2.46l-.11,2.24.96,3.95,2.24.96.75-8.44.11-1.28h2.03c-.11,2.35-.21,4.49-.21,4.49l.96,3.42,2.14-.96c.43-.75-.11-3.1-.21-4.38l.21-2.56h2.67c0,1.18,0,2.56.11,3.42.11,1.18,1.28,1.82,2.56,2.35,1.18.53,1.6-.75,1.71-1.28l-.85-3.74v-.64h3.31c-.11,1.39-.21,2.56-.21,2.99-.32,1.5.11,2.46.75,3.1l1.82-.32,1.07-2.56v-3.31h3.31c0,1.6.43,4.27,1.07,4.7l1.39-.21c.32-.32.32-2.88.43-4.49h7.16l.11.75,2.24.11.64-.85h4.38c-1.5.64-2.88,1.18-3.31,1.6l-2.46,1.28c-.85,0-1.92-.64-3.95.64-2.03,1.18-4.17,2.56-5.13,2.88l-5.56.75c-.75.21-6.2.85-8.01.96-1.82.11-4.49,0-4.49,0,0,0,.11,1.28-.96,1.28s-3.1.21-3.1.21l-1.6.96s.96,1.18-1.39.75c-2.46-.53-3.31-.96-6.09-1.5-2.78-.64-4.81-1.07-7.27-2.03-2.46-.96-8.55-5.45-11.75-7.37l-.21-.11h9.3v-.32Z"/>
  <path class="cls-2" d="M319.05,377.44c.11-1.28.11-2.35.11-2.35,0,0,.53-4.59.85-5.98.32-1.39,1.82.64,1.82.64l.11,7.8h-2.88v-.11ZM369.05,354.36c.43,1.82.85,3.53.85,3.53,0,0,.96,5.02,1.28,7.48.32,2.46,1.18,2.14,1.18,2.14,0,0,.11-2.14.32-4.17.21-2.03-1.28-8.23-1.28-8.23v-.75h8.55l.32,1.92.96,2.03c.32-.32.64-2.46.75-3.95h4.38l.11.64.53,2.03.96-.75.32,2.46v8.01l1.71,2.35,1.07,1.07s-4.7,1.71-5.98,2.24c-1.28.53-8.65,3.31-10.36,3.85-.85.21-2.24.75-3.53,1.28h-4.38l.53-1.92-.53-8.23-1.18-2.46-.96-7.27c.11-.43-.21-1.82-.43-3.31h4.81ZM361.15,354.36c.32,1.07.53,1.82.53,1.92l.53,6.73,1.07,5.34.53,3.42c-.11.53,0,4.17.21,5.77h-7.16v-1.28l-.53-5.24-.75-9.3s-.53-3.95-.85-5.88l-.21-1.39h6.62v-.11ZM351.1,354.36l.53.43.21,2.67.43.96.43,3.95.53.96s.32,1.71.21,4.81c-.11,3.1.75,3.63.75,3.63,0,0-.11,3.95-.11,5.45v.32h-3.31v-.53l.32-3.31s-.53-4.81-.32-5.98c.21-1.07.53-2.24.53-3.63s-.53-2.46-.53-2.46c0,0,.32-5.66.11-6.73v-.43h.21v-.11ZM347.79,354.36l.11,1.18-.21,11.86s-.21,6.2-.43,10.04h-3.31c0-1.5.32-4.7.43-5.34l.75-3.74-.11-6.3c.11-.43.11-4.7,0-7.8h2.78v.11ZM341.7,354.36c.21,2.14.32,5.77.21,7.59-.11,2.35-.43,4.81-.53,5.34l-.85,8.65-.21,1.5h-2.67l.43-2.56c.21-1.39.75-8.97.75-8.97,0,0,.11-7.8.11-9.08l-.43-2.46h3.21ZM334.86,354.36c.21,1.6.43,3.74.43,4.17,0,.75,0,10.26-.21,12.5-.11,1.18-.21,3.95-.43,6.41h-2.03c.21-2.14.53-6.3.53-6.73l-.96-1.6c-.75.53-1.82,1.71-2.35,2.99-.53,1.28-.43,2.14-.75,3.31l-.32,2.03h-2.88c.21-1.18.75-8.23.75-8.23,0,0,1.39-5.98,1.39-7.69s1.39-.96,2.03-.85l.85.43s.32-2.67.75-4.06c.11-.43.21-1.5.21-2.67h2.99ZM326.42,354.36c-.32,2.67-.53,7.05-1.18,9.72-.75,3.21-1.5,1.71-2.24,1.39l-.64-5.66c0-.75.11-3.74.11-5.45h3.95ZM307.94,354.36c.11,2.35.32,5.88,0,6.52l-.75,4.7c0,.64-.53,2.78-.43,4.27.11,1.5-.21,1.71.43,2.78l1.18,1.6c.53.32,1.28.21,1.71-1.28.32-1.5.64-3.74.85-6.09.11-1.6.11-8.33,0-12.39h3.74l.11.21.64-.21h2.88l-.21,2.35c-.32,2.88-2.46,13.57-2.56,15.71-.11,1.18-.21,3.21-.32,5.13h-9.19c-3.31-2.03-8.55-6.09-8.97-6.41l-.11-1.71c.85-.53,2.56-2.35,3.1-4.27.53-1.82,1.07-7.59,1.71-10.68h6.2v-.21Z"/>
  <path class="cls-2" d="M340.95,333.74c.96.11,7.48.32,9.72-.21,2.24-.53,3.42-.96,4.27-1.18.85-.32,1.39.11,1.18-1.28-.21-1.39-1.71-2.03-2.88-2.46-1.07-.43-3.53-.85-4.49-.96l-10.36.21-3.42,1.39-2.24,1.28,1.07,2.67,4.38.53h2.78M373.01,319l.32,6.41c0,.96.53,3.95.75,5.24.21,1.28,1.39,3.31,1.39,3.31l1.39-3.53s-.53-2.35-.53-6.73c0-4.49-3.31-4.7-3.31-4.7M368.84,336.52s-.53,2.03,1.07,1.39,1.6-1.71,2.03-3.74c.43-2.03.43-4.06-.64-4.17l-1.5.85-.32,2.88-.64,2.78M382.09,354.36v-1.28c-.11-.85-.64-4.59-.43-5.66.21-1.07.75-5.24.75-5.24l.85.64,1.92,6.09,1.39,5.56h-4.49v-.11ZM350.68,354.36h.43-.43ZM310.93,354.36v-3.1s-1.28-11.86-1.28-13.78-2.14-8.87-2.67-10.36c-.53-1.39-.11-3.95.11-4.7.21-.75,1.39-3.1,1.5-.32.11,2.88-.21,4.49.32,4.81l2.46.32c.53-.64,1.18-5.45.96-7.69-.21-3.31-.64-3.85-.64-6.52s.11-7.69.53-9.4c.43-1.71.21-3.42,1.6-2.88,1.39.53,1.39,1.39,1.71,3.42.32,2.03,1.39,3.63,2.03,5.02.64,1.39,2.03,4.17,2.99,4.49l1.92.85,1.5-2.35c.21-.43.85-2.14,1.07-.75.32,1.39.64,3.21.43,3.74s-1.28,2.88-1.18,4.17c.11,1.28.75,4.49,1.6,5.34.96.96,2.88,2.03,4.59,2.03s5.66-1.07,5.66-1.07l.21-2.14-2.99-1.71c-.43-.53-2.14-3.21-1.6-4.38.53-1.07.75-3.63,1.07-4.38l1.82-.96c.75.53,3.1,1.39,4.27,1.39,1.07,0,10.26.21,10.58.11l3.85-1.5,1.5.11,1.28,4.59-.21,3.74-3.42,2.46-1.28,1.5c.96.64,2.14,1.5,3.53,1.82,1.39.32,3.85.75,4.81.53.96-.21,2.88-1.71,3.53-3.21.75-1.5.75-4.49.64-5.77-.11-1.28-1.07-4.27-1.28-4.81l-1.07-2.24,1.18-.11,2.46,2.78c.96.21,5.24-4.38,6.62-6.62,1.28-2.24,2.88-5.88,3.53-6.73l1.82-5.24,1.28.32-.43,4.17-.75,7.8-.11,6.41,2.03,5.56c.32.96,1.18,5.34,1.28,6.52.11,1.07.11,4.81-.53,6.41-.64,1.5-.96,1.92-1.18,2.99-.32,1.07-.85,6.84-.64,8.23.21,1.28.75,5.24.96,5.98.11.53.64,3.31.96,5.24h-8.55c0-1.6-.11-5.24-.43-6.73-.21-1.39-1.5-2.56-2.35-2.99l-.75-.11-.96.11-.32,2.99c-.21,1.6.53,1.6,1.28,3.21.32.75.75,2.14,1.18,3.53h-4.59c-.21-1.28-.53-2.67-.64-3.21-.21-1.28-2.03-6.52-1.82-8.23.21-1.71-1.07-4.81-2.03-5.98-.96-1.18-.21-.43-.96.21l-.64,6.41s1.82,7.27,2.78,10.79h-6.52c-.21-1.5-.32-2.99-.32-2.99l-.53-7.8-.64-2.78-.64,2.03-.96,2.14-1.07-.32-.75-2.46-.96-1.39-2.35,1.07.75,4.38s.21,5.45.43,8.01h-2.88l-.11-1.39c-.21-2.99-1.18-7.59-1.18-7.59,0,0-.75-2.35-1.18-3.42-.53-1.07-1.82.64-2.03,1.39l.32,4.7c-.11.85.53,3.74.85,4.91l.21,1.39h-3.1c-.32-1.39-.75-2.78-.75-2.78,0,0-.96-2.35-1.28-3.85-.43-1.5-1.28,1.18-1.28,1.18l-.64,3.21c0,.21.11,1.07.21,2.14h-2.99c.11-3.1-.11-7.69,0-8.23l-.75-7.27c-.64-.75-1.82,1.18-2.67,3.1-.85,1.92-1.6,8.65-1.92,10.9l-.11,1.39h-3.95v-.75c0-1.39.85-6.62.85-8.23s.75-5.02.32-7.37c-.43-2.35-.85-3.42-2.03-4.06-1.18-.64-.64,1.39-.75,1.82-.11.43-1.39,7.48-1.71,8.65-.21.85-.64,6.3-.96,9.94h-2.88l.32-2.46s.32-4.81.32-6.41c0-1.5.75-2.99.96-6.94.21-3.95-1.07-5.02-1.07-5.02l-.96.11s-.96,2.14-1.28,3.42c-.32,1.28.11,9.83.32,12.18.21,2.24.11,3.53.75,5.13h-3.53v.21ZM301.85,354.36l.21-.75c.85-2.88.96-9.3,1.18-10.58.32-1.28.96-5.98,1.71-4.59.75,1.39,1.28,5.02,1.28,5.77l1.5,8.12.11,2.03h-5.98Z"/>
  <path class="cls-1" d="M332.94,87.14h21.8v24.36h23.19v19.98h-23.19v52.46h-21.8v-52.46h-23.72v-19.98h23.72v-24.36ZM337.43,91.63v24.36h-23.72v11.01h23.72v52.46h12.82v-52.46h23.19v-11.01h-23.19v-24.36h-12.82Z"/>
  <path class="cls-1" d="M90.72,457.15h4.81v2.56h41.88l.75-.21v4.06s-3.21,1.07-4.27,3.21c-1.07,2.14-1.39,1.92-1.5,9.08s0,16.88,0,17.63v47.55s-.32,7.59.53,10.26l-11.33,4.06-13.14,9.83-18.48-23.51s-4.27-4.06-2.88-12.39c1.18-6.94,3.31-9.3,4.38-10.79,1.07-1.6.75-.85.75-.85l2.35.11-.64,2.67s-.32.64.85,2.67c1.18,1.92,20.73,25.43,20.73,25.43,0,0,.64,1.18.75-.11,0-1.28-.21-23.72-.21-23.72v-25.11h-11.75l-1.07,1.5-3.53,11.86-.11-24.89h5.34v2.35h10.68v-11.75l-.64-3.31s.85-.11,4.17-2.56c3.31-2.46,3.63-2.67,3.63-2.67l-.32-.21s-8.23,1.82-9.51,2.03c-1.28.21-3.21.32-3.95.32h-12.5l-.96.32-4.91,13.78.11-29.17Z"/>
  <polygon class="cls-1" points="164.34 457.04 171.6 459.82 163.06 469.75 160.92 469.11 164.34 457.04"/>
  <polygon class="cls-1" points="177.48 457.04 184.75 459.71 176.3 469.75 174.17 469.01 177.48 457.04"/>
  <path class="cls-1" d="M277.59,483.11s2.35-2.78,3.95-5.34c1.71-2.56,3.95-5.98,3.95-5.98l12.39,4.38-1.39,4.06.11,9.83,10.26-18.27h3.42l5.34,19.66s.96,6.41-.32,9.72c-1.28,3.42-2.99,6.62-5.13,8.65-2.14,2.03-3.31,3.21-3.31,3.21l-2.99-2.99s2.99-3.21,3.1-5.13c.11-1.92-.85-4.49-1.92-8.23-1.07-3.74-2.88-8.97-2.88-8.97l-1.28,1.92-4.27,7.37v37.29l8.97,2.46,1.18-4.7,5.02,1.6-9.62,15.49-20.3-5.45s1.82-1.28,1.71-11.97c-.11-10.68-.11-46.48-.11-46.48l-5.88-2.14Z"/>
  <path class="cls-1" d="M318.73,482.68l7.59-10.9,13.78,5.24s-1.5,3.95-1.5,6.94.11,8.44.11,8.44l12.07-20.62,18.06,6.41s-1.6,4.06-1.6,8.23.21,7.59.21,7.59l11.86-22.33,17.84,6.41s-2.56,5.13-2.56,8.55c-.11,6.73.21,49.15.21,49.15l5.77,1.71-5.98,11.43-15.6-4.27s1.82-3.1,1.82-11.01c.11-7.91,0-46.91,0-46.91l-4.59-1.82-9.08,15.28.21,35.79,4.91,1.5-6.3,11.33-14.1-3.74s1.71-2.35,1.71-10.9-.11-41.35-.11-41.35v-5.56l-6.2-2.46-8.44,14.1.32,37.29,4.17,1.39-5.98,11.22-14.21-3.74s1.82-3.42,1.92-9.4c.11-5.98-.11-50-.11-50l-6.2-2.99Z"/>
  <path class="cls-1" d="M461.47,535.25l6.73,2.03-6.94,11.43-15.6-3.95s2.24-2.46,2.14-15.71c-.11-13.25-.11-42.95-.11-42.95l-6.2-2.35,7.48-12.07,14.74,5.77-2.35,5.34.11,52.46"/>
  <polygon class="cls-1" points="457.63 456.4 465 459.28 456.13 469.33 454.21 468.79 457.63 456.4"/>
  <path class="cls-1" d="M489.57,456.29l7.91,5.02s3.21,2.24,5.45.11c2.35-2.14,2.35-2.35,2.35-2.35l2.67,1.71-7.48,9.94s-5.13,2.67-7.91,1.82c-2.78-.85-5.66-2.14-5.66-2.14l-.21,28.74.11,57.7s-2.24-.11-3.95.85c-1.82.85-3.31,1.82-3.95,3.42-.64,1.6-.75,3.74-.75,3.74l-5.34-.11-.21-91.03-1.6-5.88,10.47-3.1,8.12-8.44Z"/>
  <path class="cls-1" d="M514.15,459.07l-.11,12.39,13.57-.11-5.56,10.79-7.8.11-.21,53,6.62,1.82-6.84,11.65-15.6-4.27s2.24-3.95,2.24-11.86-.11-50.22-.11-50.22h-5.02l9.3-9.72,9.51-13.57Z"/>
  <path class="cls-1" d="M562.34,482.47s2.35-2.78,3.95-5.34c1.71-2.56,3.95-5.98,3.95-5.98l12.39,4.38-1.39,4.06.11,9.83,10.26-18.27h3.42l5.34,19.66s.96,6.41-.32,9.72c-1.28,3.42-2.99,6.62-5.13,8.65s-3.31,3.21-3.31,3.21l-2.99-2.99s2.99-3.21,3.1-5.13c.11-1.92-.85-4.49-1.82-8.23-1.07-3.74-2.88-8.97-2.88-8.97l-1.28,1.92-4.27,7.37v37.29l8.98,2.46,1.18-4.7,5.02,1.6-9.62,15.49-20.3-5.45s1.82-1.28,1.71-11.97c-.11-10.68-.11-46.48-.11-46.48l-5.98-2.14Z"/>
  <path class="cls-2" d="M141.9,545.62l.85-4.38s0-34.3-.11-36.43c-.11-2.03-1.28-5.34-1.28-5.34l10.26-3.85s.11,0-1.28-.85c-3.42-2.03-5.77-4.38-6.52-5.24l-2.14-3.42,11.86-5.98,6.84-8.01,24.15,8.87-1.28,2.14-1.18,2.99.11,49.36.96.53,4.81,1.28-7.27,11.65-13.25-3.53.85-9.19-.32-2.88-2.99,4.7-6.2,11.01-16.88-3.42ZM156.64,484.61l.75,1.92c1.07,1.92,2.35,2.78,4.38,3.63,1.82.85,3.1.85,5.02.75,2.46-.11,6.09-1.5,6.09-1.5l-16.24-4.81ZM156.64,534.29l5.88,1.92,5.77-9.94-.11-32.27-11.54,5.56v34.72Z"/>
  <path class="cls-2" d="M191.8,484.61l10.9-4.81,6.62-7.91,25.96,8.76s-1.71,1.92-1.92,4.38c-.21,2.46-.21,27.14-.21,27.14l.11,41.03-8.87,2.56-8.01,8.23s-8.76-4.27-13.68-4.38c-4.91-.11-5.66.11-7.05,1.18-1.39,1.07-3.1,4.17-3.1,4.17l-3.31-1.18s2.88-5.66,5.98-8.76c3.1-3.1,5.66-5.13,8.01-5.98,2.35-.75,3.53-.85,3.53-.85l-.21-.64-14.96-3.95s1.28-3.85,1.5-7.27,0-25.43,0-25.43l.11-21.05-1.39-5.24ZM208.79,547.86l11.01,2.67v-21.58l-11.01,18.91ZM206.97,484.93l.11,49.47,4.91,1.39,7.8-14v-23.19c0-2.14-1.28-5.13-1.28-5.13l3.31-3.53-14.85-5.02Z"/>
  <path class="cls-2" d="M242.66,542.73l1.28-6.94s.11-34.62,0-41.14c-.11-6.52-1.39-10.36-1.39-10.36l9.4-2.46,8.55-9.72,17.42,18.06-2.14,2.56-17.84,31.95.21,8.65,14,3.53,1.6-4.38,4.38,1.39-8.87,15.6-26.6-6.73ZM257.72,488.24l.11,30.13,10.04-18.59-10.15-11.54Z"/>
  <path class="cls-2" d="M404.74,542.3l1.28-6.94s.11-34.62,0-41.14c-.11-6.52-1.39-10.36-1.39-10.36l9.4-2.46,8.55-9.72,17.42,18.06-2.14,2.56-17.84,31.84.21,8.65,14,3.53,1.6-4.38,4.38,1.28-8.87,15.6-26.6-6.52ZM419.8,487.81l.11,30.13,10.04-18.59-10.15-11.54Z"/>
  <path class="cls-2" d="M527.93,541.98l1.28-6.94s.11-34.62,0-41.14c-.11-6.52-1.39-10.36-1.39-10.36l9.4-2.46,8.55-9.72,17.42,18.06-2.14,2.56-17.84,31.95.21,8.65,14,3.31,1.6-4.38,4.38,1.28-8.87,15.6-26.6-6.41ZM543,487.49l.11,30.13,10.04-18.59-10.15-11.54Z"/>
</svg>